<?xml version="1.0" encoding="UTF-8"?>
<svg version="1.1" viewBox="0 0 1600 248" width="1280" height="1280" xmlns="http://www.w3.org/2000/svg">
<path transform="translate(0)" d="m0 0h1600v248h-1600v-248z" fill="#FDFDFD"/>
<path transform="translate(450,20)" d="m0 0c0.553 0.142 1.11 0.284 1.68 0.431 7.65 1.77 15.1 1.83 22.9 1.76 1.26-6.45e-4 2.53-0.00129 3.83-0.00195 11.1 0.43 11.1 0.43 21.6-2.19 1.75-0.106 3.5-0.149 5.26-0.161 1.65-0.0144 1.65-0.0144 3.33-0.0291 1.19-0.00425 2.39-0.0085 3.61-0.0129 1.22-0.0057 2.45-0.0114 3.71-0.0173 2.6-0.00946 5.19-0.016 7.79-0.0198 3.96-0.00968 7.92-0.0407 11.9-0.0723 2.52-0.00653 5.04-0.0118 7.56-0.0156 1.77-0.0185 1.77-0.0185 3.58-0.0374 7.36 0.0198 12.6 0.516 18.5 5.09 7.44 7.56 11.8 14.7 11.9 25.5 0.0147 1.55 0.0147 1.55 0.0297 3.13 0.00576 1.12 0.0115 2.25 0.0174 3.4 0.0099 1.19 0.0198 2.38 0.03 3.61 0.0261 3.26 0.048 6.51 0.068 9.77 0.0219 3.41 0.0493 6.81 0.0761 10.2 0.0499 6.45 0.0948 12.9 0.138 19.3 0.0494 7.34 0.104 14.7 0.16 22 0.114 15.1 0.221 30.2 0.323 45.3-1.11 0.202-2.21 0.404-3.35 0.612-1.46 0.27-2.92 0.54-4.39 0.81-0.729 0.133-1.46 0.265-2.21 0.402-5 0.927-9.46 2.01-14.1 4.18l-3.2 1.46c-7.14 3.37-13.3 7.11-19.5 12.1-2.3 1.41-2.3 1.41-4.38 1.24-1.93-0.83-3.81-1.7-5.68-2.64-11.5-5.07-22.3-6.56-34.8-6.62l-3.36-0.0303c-6.47 0.0684-11.2 0.886-17.1 3.47-2.4 0.584-4.78 1.04-7.21 1.47-0.589 0.174-1.18 0.348-1.79 0.527-0.495 0.99-0.495 0.99-1 2 0-5.32 0.831-8.33 4.44-12.3 0.617-0.697 1.23-1.39 1.87-2.11 1.69-1.57 1.69-1.57 3.69-1.57 0.33-0.99 0.66-1.98 1-3 1.96-1.71 3.96-3.38 6-5 0.33-0.33 0.66-0.66 1-1-1.65-0.33-3.3-0.66-5-1-0.0249-4.71-0.0429-9.43-0.0549-14.1-0.00501-1.6-0.0118-3.2-0.0205-4.8-0.0122-2.31-0.0178-4.62-0.0222-6.93-0.00516-0.708-0.0103-1.42-0.0156-2.14-4.93e-4 -4.44 0.393-8.61 1.11-13-1.98-0.33-3.96-0.66-6-1-0.33 1.65-0.66 3.3-1 5-3.39-0.283-4.74-0.741-7.19-3.19-4.07-6.32-4.51-12.4-3.81-19.8 1.73-5.2 4.52-7.9 9-11 2.34-0.906 4.54-1.46 7-2 0.0748-0.895 0.15-1.79 0.227-2.71 1.09-10 3.45-17.7 11.1-24.5 4.04-3.17 8.36-5.98 12.7-8.75-2.89-0.963-4.41-1.05-7.38-0.938-10.9 0.0632-20-2.03-29.6-7.06-0.66-0.33-1.32-0.66-2-1v-2h-2c-2.08-3.47-2.44-6.56-2.75-10.6-0.098-1.14-0.196-2.27-0.297-3.44 0.0469-3 0.0469-3 2.05-6z" fill="#161616"/>
<path transform="translate(1104,24)" d="m0 0c10.2 9.09 10.2 9.09 11 15h2c0.461 0.884 0.461 0.884 0.93 1.78 1.42 2.72 2.84 5.44 4.26 8.15 0.724 1.39 0.724 1.39 1.46 2.81 2.69 5.15 5.44 10.3 8.28 15.3 4.07 7.3 4.07 7.3 4.07 9.92 3.96 1.82 7.41 2.39 11.8 2.69 1.72 0.13 1.72 0.13 3.48 0.262 4.33 0.0584 8.48-0.375 12.8-0.949 0.0247-3.97 0.0428-7.94 0.0549-11.9 0.00504-1.35 0.0119-2.7 0.0205-4.05 0.0121-1.94 0.0173-3.88 0.0222-5.82 0.00786-1.75 0.00786-1.75 0.0159-3.54 0.193-2.6 0.193-2.6-1.11-3.68-3.23-0.542-6.46-0.966-9.7-1.4-3.3-0.598-3.3-0.598-6.06-1.73-3.05-1.19-4.3-0.0757-7.24 1.13-2.25-0.5-2.25-0.5-4-2-1.06-2.81-1.06-2.81-1-6 2.12-2.56 2.12-2.56 5-5 0.846-0.887 1.69-1.77 2.56-2.69 2.21-2.1 3.78-2.99 6.44-4.31 1.71-1.62 3.37-3.29 5-5 2.86-2.93 5.64-5.64 9-8 0.99 0.866 0.99 0.866 2 1.75 6.45 4.84 11 6.61 19.2 6.62 0.698 0.00161 1.4 0.00322 2.11 0.00488 3.75-0.0813 6.39-0.514 9.64-2.38 2.25 0.375 2.25 0.375 4 1-0.444 8.88-7.26 14.5-13.5 20.1-2.54 1.86-2.54 1.86-10.5 5.86-0.33 46.9-0.66 93.7-1 142-7.48 0-13.6-4.74-18.8-9.68-7.14-7.54-11.8-16.1-16.3-25.4-1.99-4.14-4.09-8.23-6.17-12.3-2.55-5.08-4.95-10.2-6.75-15.6-1.05-0.186-1.05-0.186-2.12-0.375-2.88-0.625-2.88-0.625-5.75-1.62-11-3.51-22.3-2.59-33.1 1-0.0289 3.81-0.0468 7.62-0.0625 11.4-0.0126 1.63-0.0126 1.63-0.0254 3.3-0.00322 1.03-0.00645 2.07-0.00977 3.13-0.00524 0.958-0.0105 1.92-0.0159 2.9-0.137 2.2-0.137 2.2 1.11 3.22 1.98 0.294 3.95 0.584 5.93 0.85 8.75 1.21 15.6 3.11 23.1 8.15 1.48 0.99 1.48 0.99 3 2v-2c1.32-0.33 2.64-0.66 4-1 1.56 1.69 1.56 1.69 3 4-0.365 3.77-1.4 5.95-3.84 8.81-0.57 0.683-1.14 1.37-1.73 2.07-0.598 0.699-1.2 1.4-1.81 2.12-1.18 1.39-2.35 2.79-3.52 4.19-0.549 0.655-1.1 1.31-1.66 1.98-1.59 1.94-1.59 1.94-3.17 4.77-1.27 2.06-1.27 2.06-4.27 3.06-2.57-1.11-2.57-1.11-5.56-2.75-14.7-7.56-29.5-9.16-45.4-4.25-2.45 1.04-4.8 2.13-7.13 3.43-1.87 0.574-1.87 0.574-4.11-0.32l-1.76-1.11c6.38-13.4 6.38-13.4 11-19h2c0.245-0.597 0.49-1.19 0.742-1.81 1.48-2.58 2.9-3.63 5.38-5.25 0.724-0.486 1.45-0.972 2.2-1.47 3.39-1.85 7.07-3.11 10.7-4.46 0.33-10.9 0.66-21.8 1-33-1.98-0.33-3.96-0.66-6-1-0.33 2.64-0.66 5.28-1 8-5.62 0-8.85-2.32-13-6-3.58-5.23-3.85-11.9-3-18 1.64-5.62 3.77-10.1 9-13 10.4-4 10.4-4 14-4-0.33-12.5-0.66-25.1-1-38-6.52-1.3-9.54 0.547-15 4-3.05 3.05-4.61 5.94-6 10-2.92-1.07-4.78-1.78-7-4-0.172-2.54-0.233-4.96-0.188-7.5 6.45e-4 -0.69 0.00129-1.38 0.00195-2.09 0.045-5.13 0.045-5.13 1.19-7.41h2c0.155-1.08 0.155-1.08 0.312-2.19 0.759-3.11 1.95-5.14 3.69-7.81 0.433-0.825 0.866-1.65 1.31-2.5 4.25-6.3 11-10 18.1-12.2 12.3-1.2 21.5 1.48 31.6 8.75z" fill="#161616"/>
<path transform="translate(858,71)" d="m0 0c5.46 2.73 8.55 6.43 11 12 1.23 4.29 2.18 8.61 3 13 1.11-0.66 2.23-1.32 3.38-2 3.38-2 3.38-2 5.62-2v-2l3.12-1.75c2.47-1.41 4.85-2.88 7.19-4.5 2.69-1.75 2.69-1.75 4.69-1.75v-2c1.73-0.977 3.45-1.95 5.18-2.93 1.64-0.965 3.24-2.01 4.82-3.07 4 0 4 0 5.81 1.75 1.08 1.11 1.08 1.11 2.19 2.25 5.56 4.17 9.63 4.36 16.5 4.04 0.817-0.0142 1.63-0.0284 2.48-0.043 1 1 1 1 1.09 2.82-0.369 5.59-1.68 8.71-5.42 12.9-1.89 1.48-3.35 1.8-5.67 2.31 0.00444 0.817 0.00888 1.63 0.0135 2.48 0.0402 7.74 0.0706 15.5 0.0902 23.2 0.0104 3.98 0.0245 7.95 0.0473 11.9 0.0219 3.84 0.0337 7.69 0.0389 11.5 0.00367 1.46 0.0108 2.92 0.0217 4.38 0.0573 8.02-0.159 15.7-2.21 23.5-1.49 0.495-1.49 0.495-3 1-0.668 1.33-1.33 2.67-2 4-5.1 3.8-11.1 4.83-17.2 5.62-1.68 0.242-3.37 0.484-5.05 0.727-0.808 0.111-1.62 0.222-2.45 0.337-15.8 1.6-15.8 1.6-30.2 7.31-0.733 3.07-0.733 3.07-1 6 3.27 1.64 6.56 0.791 10 0 2.59-1.08 4.96-2.45 7.38-3.88 11.3-6.25 23.1-9.74 36-6.54 5.05 2.45 8.22 7.53 10.6 12.4 1.39 4.21 1.18 7.41-0.125 11.7-1.94 3.42-3.96 5.7-6.88 8.31-0.66 0.66-1.32 1.32-2 2-5.15 1.71-10.9 1.67-16 0.0625-2-1.06-2-1.06-3-2.06-0.0408-2-0.0425-4 0-6-5.07 0.483-7.86 2.12-12 5-7.37 3.67-14.9 4.29-23 3-7.08-2.48-12.6-6.18-16-13-0.15-2.25-0.222-4.5-0.25-6.75-0.0258-1.21-0.0516-2.42-0.0781-3.67 0.489-5.33 2.22-8.49 6.02-12.2 2.78-2.3 2.78-2.3 2.31-6.38-1.71-2.04-1.71-2.04-4-4-4.38-4.28-6.1-5.98-6.21-12.1-0.0199-1.06-0.0399-2.12-0.0604-3.22-0.0167-1.16-0.0334-2.31-0.0506-3.5-0.0208-1.19-0.0416-2.38-0.063-3.6-0.0655-3.82-0.124-7.64-0.183-11.5-0.0432-2.54-0.0868-5.08-0.131-7.62-0.34-20.2-0.34-20.2-0.27-29.9-0.0276-6.06-0.0276-6.06-2.04-11.7-2.84-1.92-5.72-3.04-9-4 1.36-4.09 4.18-5.74 7.5-8.25 0.632-0.486 1.26-0.972 1.92-1.47 1.27-0.976 2.54-1.95 3.81-2.92 3.04-2.33 6.01-4.73 9-7.12 1.77-1.24 1.77-1.24 4.77-2.24z" fill="#161616"/>
<path transform="translate(1317 71.9)" d="m0 0c6.45 1.99 9.24 4.74 13.1 10.1 3.99 8.8 3.66 18.9 3.75 28.4 0.0188 1.35 0.0383 2.7 0.0587 4.06 0.0508 3.52 0.0907 7.04 0.128 10.6 0.0404 3.61 0.0913 7.21 0.141 10.8 0.0962 7.05 0.181 14.1 0.258 21.1 2.41 1.2 4.83 2.39 7.25 3.56 0.682 0.342 1.36 0.684 2.07 1.04 3.75 1.91 3.75 1.91 7.85 2.11 2.03-0.557 2.03-0.557 2.83-2.71 0.106-1.72 0.149-3.44 0.161-5.16 0.00961-1.08 0.0192-2.16 0.0291-3.27 0.00425-1.17 0.0085-2.34 0.0129-3.55 0.0057-1.2 0.0114-2.4 0.0173-3.64 0.00946-2.55 0.016-5.1 0.0198-7.64 0.00968-3.89 0.0407-7.78 0.0723-11.7 0.00653-2.47 0.0118-4.95 0.0156-7.42 0.0185-1.74 0.0185-1.74 0.0374-3.52-0.0168-6.13-0.258-10.8-3.37-16.1-2.19-1.45-2.19-1.45-4.69-1.94-0.808-0.215-1.62-0.431-2.45-0.652-0.615-0.135-1.23-0.271-1.86-0.41 1.83-6.63 5.65-9.59 11-13.7 1.94-1.5 3.84-3.05 5.68-4.68 6.23-5.47 6.23-5.47 11-6.11 5.87 2.66 9.03 6.96 11.9 12.6 2.23 6.13 1.81 12.7 1.77 19.1-0.0138 2.4-0.00724 4.8 0.00484 7.2 0.0308 6.82 0.026 13.6 0.00595 20.5-0.0109 4.19 0.00227 8.37 0.0299 12.6 0.00543 1.59 0.0014 3.18-0.0124 4.77-0.0191 2.22-0.00764 4.44 0.0103 6.66-0.00239 1.26-0.00477 2.52-0.00723 3.82 0.945 5.07 4.03 7.07 7.93 10.1 3.74 1.65 6.62 1.39 10.7 1.19 1.38-2.77 1.12-5 1.11-8.1-7.55e-5 -1.28-1.51e-4 -2.56-2.29e-4 -3.88-0.00511-1.4-0.0103-2.81-0.0156-4.21-0.00186-1.43-0.00329-2.86-0.00429-4.3-0.00382-3.77-0.0136-7.54-0.0247-11.3-0.0102-3.85-0.0148-7.69-0.0198-11.5-0.0107-7.55-0.0278-15.1-0.0488-22.7h-2v-2c-2.53-1.32-5.02-2.4-7.69-3.44-1.09-0.516-2.19-1.03-3.31-1.56-0.495-1.48-0.495-1.48-1-3 3.9-4.31 8.35-7.57 13.1-10.9 1.93-1.37 3.83-2.76 5.72-4.18 0.871-0.646 1.74-1.29 2.64-1.96 0.782-0.589 1.56-1.18 2.37-1.79 2.19-1.15 2.19-1.15 4.37-1.01 1.82 0.855 1.82 0.855 3.57 3.61 2.53 3.65 4.82 5.08 8.64 7.17 0.797 0.534 0.797 0.534 1.61 1.08v2h5v-2c1.94-0.562 1.94-0.562 4-1 1 1 1 1 1.12 2.79-0.338 6.16-2.26 9.31-6.43 13.8-1.69 1.43-1.69 1.43-3.69 1.43-0.0465 7.96-0.0819 15.9-0.104 23.9-0.0104 3.7-0.0245 7.4-0.0473 11.1-0.0218 3.57-0.0337 7.15-0.0389 10.7-0.00368 1.36-0.0109 2.72-0.0217 4.08-0.0831 9.8-0.0831 9.8 2.21 19.2 0.363 1.99 0.706 3.99 1 6-0.63 0.0146-1.26 0.0292-1.91 0.0442-2.89 0.075-5.77 0.171-8.65 0.268-0.991 0.0226-1.98 0.0451-3 0.0684-5.92 0.216-10.2 0.946-15.4 3.62-1.41 0.481-2.83 0.943-4.25 1.38-3.63 1.15-6.91 2.67-10.3 4.38-4.96 2.27-8.24 3.07-13.4 1.25-7.38-3.06-15.6-7.05-20-14-3.68 0.646-6.22 2.27-9.31 4.31-4.17 2.71-8.31 5.32-12.7 7.69-1.21 0.773-1.21 0.773-2.44 1.56-4.33 0.739-7.1-2.17-10.6-4.56-8.58-5.66-15.9-7.21-26-8-0.33-0.99-0.66-1.98-1-3 1.88-3.32 3.53-5.65 6.61-7.93 3.72-4.78 3.09-9.49 3.02-15.4 0.00241-1.2 0.00482-2.4 0.00731-3.63-9.79e-4 -2.53-0.0144-5.07-0.0393-7.6-0.0343-3.87-0.0207-7.75-0.00122-11.6-0.0069-2.46-0.0166-4.93-0.0293-7.39 0.00496-1.16 0.00992-2.31 0.015-3.5-0.091-6.24-0.28-10.3-4.58-14.9-2.52-1.53-2.52-1.53-5.25-2.38-0.892-0.317-1.78-0.634-2.7-0.961-0.675-0.219-1.35-0.438-2.05-0.664 2.16-3.98 4.63-6.97 8-10h2c0.268-0.639 0.536-1.28 0.812-1.94 1.19-2.06 1.19-2.06 4.19-3.06 0.268-0.557 0.536-1.11 0.812-1.69 2.47-4.81 5.14-8.28 10.8-8.38z" fill="#141515"/>
<path transform="translate(50.2 20.6)" d="m0 0c0.662-4.99e-4 1.32-9.97e-4 2-0.00151 1.39 0.00232 2.78 0.0119 4.16 0.0286 2.11 0.0236 4.21 0.0205 6.32 0.0139 6.48 0.0266 12 0.429 18.3 2.32 1.87 0.308 3.74 0.57 5.62 0.781 1.02 0.12 2.04 0.24 3.09 0.363 1.05 0.117 2.09 0.235 3.17 0.355 11.6 1.32 11.6 1.32 16.6 2.58 5.9 1.4 11.9 1.21 17.9 1.17 1.75 0.0116 1.75 0.0116 3.53 0.0234 1.68-0.00387 1.68-0.00387 3.39-0.00781 1.01-0.00226 2.02-0.00451 3.06-0.00684 2.75-0.264 4.29-0.985 6.7-2.26 2.75 0.375 2.75 0.375 5 1-1.55 7.98-7.56 14.4-14 19-0.851 0.337-1.7 0.673-2.58 1.02-2.86 1.88-2.86 1.88-3.02 5.91-0.0145 1.68-0.00113 3.36 0.0336 5.04-7.3e-4 0.917-0.00146 1.83-0.00221 2.78 0.00349 3.04 0.0424 6.07 0.0816 9.11 0.00932 2.1 0.0164 4.21 0.0214 6.31 0.0191 5.54 0.0682 11.1 0.124 16.6 0.0511 5.65 0.074 11.3 0.0992 17 0.0536 11.1 0.139 22.2 0.244 33.3 3.98-3.95 3.98-3.95 7.56-8.25 2.47-2.79 3.01-3.14 6.44-3.75-1.59 14.3-5.15 29.2-16.2 39.1-1.23 0.978-2.49 1.93-3.75 2.88l-2.28 1.75c-13.4 9.85-30 15.4-46.7 15.4-1.16 0.00258-2.33 0.00516-3.53 0.00781-19.4-0.728-36.4-9.23-49.7-23-9.57-11.2-12-24.6-12-38.8l-0.0371-3.44c-0.0357-20.6 8.49-38.9 21.2-54.9 0.474-0.626 0.949-1.25 1.44-1.9 2.51-3.22 4.94-5.24 8.56-7.1l3.12-1.69c2.88-1.31 2.88-1.31 5.88-1.31v-2c2.47-0.495 2.47-0.495 5-1 0.688 1.69 0.688 1.69 1 4-1.21 2.49-2.42 4.44-4.43 6.36-10.2 10.7-15.2 26.4-15.1 40.8 0.00572 1.1 0.0114 2.21 0.0173 3.34 0.323 14.8 5.14 27.1 14.9 38.3 0.846 0.722 1.69 1.44 2.56 2.19 0.538 0.478 1.08 0.956 1.63 1.45 10.7 8.89 23.8 11.2 37.4 10.6 6.79-0.729 12.8-2.46 19-5.2 2-0.805 2-0.805 4-0.805v-2l2-1v-98h-23c-13.5-0.51-13.5-0.51-20-2.41-6.89-1.95-13.9-2.82-20.9-3.71-2.57-0.334-5.14-0.67-7.71-1.01-1.12-0.143-2.25-0.286-3.41-0.434-2.94-0.433-2.94-0.433-5.14-1.02-5.57-1.26-13.5 2.4-18.4 4.97-1.82 1.17-3.6 2.39-5.38 3.62h-2l-1 2c-0.656-7.09 1.15-12 5-18 0.66-0.33 1.32-0.66 2-1 0.433-0.763 0.866-1.53 1.31-2.31 3.86-6.15 10.3-8.74 16.7-11.7 1.06-0.513 2.12-1.03 3.22-1.56 3.72-1.58 6.94-1.82 11-1.81z" fill="#141415"/>
<path transform="translate(202,22)" d="m0 0c1 2 1 2 0.231 4.35-0.381 1.04-0.761 2.09-1.15 3.16-3.33 11.2-2.5 22.8-2.33 34.4 0.0201 2.35 0.0383 4.69 0.0547 7.04 0.0437 5.7 0.11 11.4 0.195 17.1 4.95-0.769 7.89-2.94 11.7-6.06 6.07-4.94 6.07-4.94 8.31-4.94v-2c3.79-2.8 7.75-4.98 12-7 0.402 1.45 0.402 1.45 0.812 2.94 0.392 1.01 0.784 2.02 1.19 3.06 1.49 0.495 1.49 0.495 3 1 1.33 1.33 2.67 2.67 4 4 2.27 1.45 3.47 2.05 6.18 1.79 1.12-0.3 1.12-0.3 2.25-0.605 0.782-0.199 1.56-0.397 2.37-0.602 0.723-0.193 1.45-0.387 2.19-0.586 1.66-0.38 3.32-0.738 5-1 1 1 1 1 1.16 3.15-0.207 5.92-0.926 9.04-5.17 13.3-5.39 6.46-5.11 12.8-4.95 20.9 0.00224 1.46 0.00164 2.93-0.00163 4.39 0.00173 3.05 0.0306 6.1 0.0805 9.16 0.0624 3.89 0.0673 7.77 0.053 11.7-0.00645 3.02 0.0125 6.04 0.0393 9.05 0.0108 1.43 0.0152 2.86 0.0127 4.3 0.00642 8.91 0.881 15.6 5.77 23.2-3.69 1.23-6.32 0.842-10.2 0.5-5.44-0.439-10.4-0.488-15.8 0.5-0.495 2.97-0.495 2.97-1 6 0.835 0.34 0.835 0.34 1.69 0.688 6.47 3.67 13 11.2 15.3 18.3 0.637 5.5 0.763 10.4-1.62 15.4-4.39 4.74-7.74 8.24-14.3 8.71-4.36-0.311-7.93-2.04-11-5.14 0.0625-1.81 0.0625-1.81 1-4 1.27-1.18 1.27-1.18 2.56-2.38 2.68-2.37 2.68-2.37 2.77-5.41-0.388-3.72-1.49-6.07-3.27-9.34-3.66-6.81-4.79-12.1-4.06-19.9 1.38-2.94 1.38-2.94 3-5 2.39-3.59 2.25-5.18 2.24-9.44 0.00285-0.974 0.00285-0.974 0.00575-1.97 0.0037-2.14-0.00699-4.29-0.0182-6.43-0.00119-1.49-0.00164-2.98-0.00139-4.47-0.00156-3.12-0.00985-6.25-0.0233-9.37-0.017-4-0.0208-8.01-0.0201-12-2.72e-4 -3.08-0.00576-6.16-0.013-9.23-0.00318-1.48-0.00515-2.95-0.00589-4.43-0.00217-2.06-0.0109-4.13-0.0216-6.19-0.00381-1.17-0.00762-2.35-0.0116-3.56-0.00595-2.95-0.00595-2.95-1.13-5.88-1.32-0.378-2.66-0.702-4-1-0.804-0.516-1.61-1.03-2.44-1.56-2.93-1.64-4.26-1.73-7.56-1.44-3.37 1.35-5.74 3.16-8 6-1.09 4.08-0.935 7.99-0.781 12.2 0.0113 1.17 0.0226 2.34 0.0343 3.54 0.0447 3.72 0.145 7.44 0.247 11.2 0.0401 2.53 0.0766 5.05 0.109 7.58 0.0881 6.18 0.222 12.4 0.391 18.5 0.762 0.303 1.52 0.606 2.31 0.918 5.44 2.19 9.54 3.92 12.7 9.08-0.249 2.6-0.785 3.77-2.56 5.7-0.62 0.51-1.24 1.02-1.88 1.55-0.617 0.521-1.23 1.04-1.87 1.58-1.69 1.17-1.69 1.17-3.69 1.17-0.253 0.581-0.505 1.16-0.766 1.76-2.19 3.97-5.47 6.76-9.23 9.24-4.18 0.334-5.56-0.646-8.81-3.25-0.504-0.442-1.01-0.884-1.53-1.34-7.52-6.39-13.8-6.91-23.3-6.49-3.38 0.0781-3.38 0.0781-5.38-0.922 0.495-1.98 0.495-1.98 1-4h2c0.248-0.949 0.495-1.9 0.75-2.88 1.25-3.12 1.25-3.12 3.31-4.31 0.959-0.402 0.959-0.402 1.94-0.812 0.33-0.99 0.66-1.98 1-3 1.25-0.535 1.25-0.535 2.53-1.08 2.61-1.61 2.61-1.61 2.94-3.81 0.17-2.61 0.178-5.19 0.136-7.8 0.00394-0.996 0.00789-1.99 0.0119-3.02 0.00673-3.3-0.0225-6.6-0.0527-9.91-0.00425-2.3-0.00658-4.6-0.00706-6.9-0.00618-4.83-0.0289-9.66-0.0645-14.5-0.045-6.16-0.06-12.3-0.0637-18.5-0.00445-4.75-0.0198-9.51-0.0389-14.3-0.00883-2.27-0.0156-4.54-0.0202-6.81-0.0128-16.3-0.0128-16.3-2.36-32.4-0.342-2-0.677-4-1-6 0.978-0.231 1.96-0.461 2.96-0.699 6.97-1.71 13.2-3.42 19.3-7.35 1.73-0.953 1.73-0.953 4.73-0.953 0.33-0.99 0.66-1.98 1-3 3.56-1.69 3.56-1.69 7-3z" fill="#151516"/>
<path transform="translate(68.1 50.3)" d="m0 0c0.889 0.0786 1.78 0.157 2.7 0.238 2.57 0.363 4.97 0.853 7.48 1.45 4.6 1.05 9.06 1.43 13.8 1.62 1.22 0.058 1.22 0.058 2.46 0.117 6.85 0.299 13.7 0.304 20.5 0.195 2.93 0.0625 2.93 0.0625 3.93 1.06 0.0953 3.04 0.126 6.07 0.114 9.11 1.46e-4 0.956 2.92e-4 1.91 4.43e-4 2.9-7e-4 3.18-0.00849 6.35-0.0163 9.53-0.00186 2.2-0.00329 4.39-0.00429 6.59-0.00383 5.79-0.0137 11.6-0.0247 17.4-0.0102 5.91-0.0148 11.8-0.0198 17.7-0.0107 11.6-0.0278 23.2-0.0488 34.8l-3 1v2c-2.52 0.988-5.04 1.97-7.56 2.94-0.704 0.278-1.41 0.556-2.13 0.842-13.1 5.03-27.1 4.41-40.1-0.916-5-2.37-9.26-5-13.2-8.86v-2c-0.897-0.367-0.897-0.367-1.81-0.742-7.77-4.47-12.1-17.2-14.5-25.4-1.13-5.02-1.17-9.97-1.14-15.1l0.0151-3.33c0.276-12.9 4.34-22.7 11.5-33.4 0.396-0.63 0.791-1.26 1.2-1.91 2.51-3.94 2.51-3.94 4.8-5.09 1.05-2.31 2.06-4.64 3-7 1.32 0.33 2.64 0.66 4 1v-6c3.16-1.05 4.85-1 8.12-0.688z" fill="#FDFDFD"/>
<path transform="translate(626 74.5)" d="m0 0c2.2 1.51 3.09 2.64 4.56 4.81 2.93 4.23 5.66 8.08 11 9.17 5.22 0.293 8.97-0.427 13-3.77 3.03-3.23 5.35-6.91 7.61-10.7 3.78 1.73 6.1 4.02 9 7 2.98 1.99 3.92 2.29 7.31 2.56 3.6 0.329 7.13 0.798 10.7 1.44-0.118 6.63-1.8 9.62-6.31 14.4-1.69 1.57-1.69 1.57-3.69 2.57v59c1.65 0.66 3.3 1.32 5 2 5.71 2.42 5.71 2.42 6.88 4.79 0.179 3.27-1.25 4.7-3.19 7.28-0.636 0.857-1.27 1.71-1.93 2.6-0.581 0.772-1.16 1.54-1.76 2.34-0.66 0.99-1.32 1.98-2 3h-2c-0.144 0.639-0.289 1.28-0.438 1.94-0.562 2.06-0.562 2.06-1.56 3.06-8.56 0.955-14.7-1.82-21.5-6.72-1.48-1.28-1.48-1.28-3.48-4.28-5.58 0.486-8.93 3.94-12.9 7.49-3.05 2.53-5.16 3.82-9.19 3.88-11-1.07-21.7-5.73-28.9-14.4-1.69-2.94-1.69-2.94-3-6-0.588-1.33-0.588-1.33-1.19-2.69-2.87-11.7 1-20.9 6.75-31.1 3.42-5.31 8.64-9.21 13.4-13.2-0.63-5.51-3.37-8.41-7.25-12.2-1.75-1.81-1.75-1.81-1.75-3.81-0.581-0.25-1.16-0.5-1.76-0.758-2.54-1.41-4.12-2.96-6.05-5.12-0.625-0.678-1.25-1.36-1.89-2.05-1.29-2.07-1.29-2.07-1.35-4.14 1.61-2.94 3.8-3.62 6.81-5 8.06-3.63 8.06-3.63 14.4-9.56 3.74-4.67 3.74-4.67 6.62-3.88z" fill="#131415"/>
<path transform="translate(1511,73)" d="m0 0c3 1 3 1 4.69 2.88 3.14 2.88 6.08 4.47 10.3 5.12 4.51-0.651 7.98-1.92 11.1-5.25 0.619-0.578 1.24-1.16 1.88-1.75 3.75 0.25 3.75 0.25 7 1-0.259 1.4-0.533 2.79-0.812 4.19-0.226 1.17-0.226 1.17-0.457 2.36-0.849 2.85-2.12 4.96-3.73 7.46-0.556 0.897-1.11 1.79-1.68 2.72-0.579 0.918-1.16 1.84-1.75 2.78-0.576 0.918-1.15 1.84-1.75 2.78-2.54 3.8-5.41 7.24-8.38 10.7-2.11 2.59-3.76 5.13-5.44 8 1.2 0.049 2.41 0.098 3.65 0.148 1.58 0.075 3.15 0.151 4.73 0.227 0.794 0.0309 1.59 0.0619 2.41 0.0938 5.99 0.305 5.99 0.305 8.22 2.53 0.234 2.3 0.234 2.3 0.211 5.21-0.00338 1.09-0.00676 2.18-0.0102 3.3-0.0135 1.18-0.0269 2.36-0.0408 3.58-0.0052 1.21-0.0104 2.42-0.0158 3.66-0.0179 3.88-0.049 7.75-0.0819 11.6-0.0276 3.87-0.0523 7.74-0.0712 11.6-0.0123 2.41-0.0299 4.82-0.0533 7.23-0.00653 1.09-0.0131 2.19-0.0198 3.32-0.0124 1.44-0.0124 1.44-0.025 2.92 0.098 2.35 0.438 4.31 1.11 6.56-0.74-0.0157-1.48-0.0314-2.24-0.0476-3.4-0.0629-6.8-0.102-10.2-0.14-1.16-0.0251-2.33-0.0503-3.53-0.0762-12.1-0.103-22.8 3.17-32 11.3-3.25-1.02-4.96-1.96-7.38-4.44-4.11-4.01-7.9-5.37-13.6-6-4.61 0.214-8.36 1.7-12.1 4.44-1.98 2.24-3.42 4.44-5 7-2.31-0.33-4.62-0.66-7-1 1.45-8.04 5.22-14.9 9-22 0.422-0.799 0.843-1.6 1.28-2.42 2.43-4.43 2.43-4.43 4.72-5.58 1.01-1.66 2.01-3.33 3-5 0.701-0.866 1.4-1.73 2.12-2.62 2.04-2.31 2.04-2.31 2.88-5.38-3.3-0.33-6.6-0.66-10-1-1.12-6.62-1.12-6.62 0-10 0.0974-2.87 0.14-5.71 0.133-8.58 9.57e-4 -0.845 0.00191-1.69 0.0029-2.56 6.81e-4 -1.79-0.00116-3.58-0.00534-5.37-0.00532-2.72-6.46e-5 -5.44 0.00635-8.16-6.61e-4 -1.74-0.00194-3.48-0.00391-5.22 0.00202-0.808 0.00405-1.62 0.00613-2.45-0.0148-3.62-0.185-6.98-0.706-10.6-0.456-3.25-0.244-4.42 1.57-7.08 3.47 0.458 6.67 0.891 10 2 11.2 1.41 22.3-1.9 31.2-8.62 1.5-1.2 2.97-2.44 4.43-3.69 0.789-0.559 1.58-1.12 2.39-1.7z" fill="#161616"/>
<path transform="translate(1255,70)" d="m0 0c3.1 3.1 3.48 4.04 4.56 8.06 3.01 9.6 8.32 18.4 13.7 26.9 2.75 4.44 2.75 4.44 2.8 7.28-1.49 2.52-3.23 3.51-5.73 5.02-0.995 0.603-1.99 1.21-3.02 1.83-4.58 2.67-9.17 5.32-13.8 7.93-4.4 2.49-8.74 5.07-13.1 7.65-2.43 1.35-2.43 1.35-5.43 2.35 0.33 6.6 0.66 13.2 1 20 1.4 0.0825 2.81 0.165 4.25 0.25 5.31 0.505 9.92 2.02 14.9 3.91 3.13 0.918 5.62 1.1 8.86 0.84 0.681-0.536 1.36-1.07 2.06-1.62 0.959-0.681 0.959-0.681 1.94-1.38 2.69 0.5 2.69 0.5 5 2 1.06 2.38 1.06 2.38 1 5-1.81 2.12-1.81 2.12-4 4-0.66 0.99-1.32 1.98-2 3h-2c-0.268 0.639-0.536 1.28-0.812 1.94-1.19 2.06-1.19 2.06-4.19 3.06-1.07 1.85-1.07 1.85-2 4-1.75 2.64-3.58 4.95-6 7-4.15 0.386-7.32-1.59-11-3.31-15.2-7-29.4-7.47-46-7.69-0.33-0.99-0.66-1.98-1-3 0.454-0.412 0.908-0.825 1.38-1.25 1.71-1.63 1.71-1.63 2.38-3.62 1.25-2.12 1.25-2.12 4.78-3.86 2.7-1.91 3.38-2.87 4.11-6.15 0.221-3.82 0.226-7.61 0.148-11.4-0.00545-1.42-0.00822-2.85-0.00845-4.27-0.00772-2.98-0.0386-5.97-0.0877-8.95-0.0619-3.8-0.0808-7.59-0.0838-11.4-0.00474-2.94-0.0256-5.89-0.0519-8.83-0.0119-1.4-0.0207-2.8-0.0261-4.19-0.0491-8.47-0.796-16-3.53-24 2.9-1.66 3.69-2.05 7.12-1.5 9.99 1.29 21.1-3 29.9-7.5h3v-2c5.44-2.97 5.44-2.97 11-6z" fill="#161616"/>
<path transform="translate(335 72.6)" d="m0 0c2.33 1.67 2.74 2.77 3.64 5.48 1.76 4.79 3.84 9.32 6.12 13.9 0.516 1.03 0.516 1.03 1.04 2.09 2.43 4.8 5.11 9.35 8.15 13.8 0.934 2.11 0.934 2.11 0.922 4.67-1.38 3.41-3.15 4.16-6.36 5.88-1.09 0.599-2.19 1.2-3.32 1.82-1.09 0.576-2.18 1.15-3.31 1.75-1.77 0.956-3.54 1.91-5.31 2.88-0.882 0.474-1.76 0.949-2.67 1.44-4.43 2.48-8.75 5.12-13.1 7.79-4.74 2.9-4.74 2.9-6.95 2.9 0.495 8.91 0.495 8.91 1 18 5.56 1.88 11.1 3.65 16.8 5.3 2.23 0.695 2.23 0.695 5.1 1.88 2.37 1.05 2.37 1.05 6.12 0.812 2.25-1.92 2.25-1.92 4-4 3.16 1.37 3.99 1.99 6 5-0.375 2.19-0.375 2.19-1 4h-2c-0.251 0.568-0.503 1.14-0.762 1.72-1.41 2.59-3.07 4.53-5.05 6.71-0.712 0.785-1.42 1.57-2.16 2.38-2.29 2.46-4.62 4.84-7.03 7.18-0.474 0.619-0.949 1.24-1.44 1.88-1.56 1.12-1.56 1.12-4.06 1.12-3.08-0.88-5.62-1.94-8.5-3.31-14.9-6.86-28.8-7.47-45-7.69-0.629-1.82-0.629-1.82-1-4 2.48-3.54 4.25-5.58 8.06-7.69 2.4-2.02 2.9-3.13 3.49-6.26 0.196-3.91 0.205-7.79 0.141-11.7-0.00358-1.45-0.00493-2.91-0.00417-4.36-0.00469-3.04-0.0295-6.09-0.0698-9.13-0.0508-3.88-0.0624-7.77-0.0602-11.7-8.2e-4 -3-0.0173-6-0.039-9.01-0.00949-1.43-0.0154-2.86-0.0177-4.29-0.0253-7.73-0.429-13.8-3.5-20.9 0.33-0.99 0.66-1.98 1-3 0.753 0.0464 1.51 0.0928 2.28 0.141 15.4 0.523 27.8-3.97 41.1-11.5 5.15-2.8 5.15-2.8 7.73-2.01z" fill="#161616"/>
<path transform="translate(858,71)" d="m0 0c5.46 2.73 8.55 6.43 11 12 1.23 4.29 2.18 8.61 3 13 1.11-0.66 2.23-1.32 3.38-2 3.38-2 3.38-2 5.62-2v-2l3.12-1.75c2.47-1.41 4.85-2.88 7.19-4.5 2.69-1.75 2.69-1.75 4.69-1.75v-2c1.73-0.977 3.45-1.95 5.18-2.93 1.64-0.965 3.24-2.01 4.82-3.07 4 0 4 0 5.81 1.75 1.08 1.11 1.08 1.11 2.19 2.25 5.56 4.17 9.63 4.36 16.5 4.04 0.817-0.0142 1.63-0.0284 2.48-0.043 1 1 1 1 1.09 2.82-0.369 5.59-1.68 8.71-5.42 12.9-1.89 1.48-3.35 1.8-5.67 2.31 0.00444 0.817 0.00888 1.63 0.0135 2.48 0.0402 7.74 0.0706 15.5 0.0902 23.2 0.0104 3.98 0.0245 7.95 0.0473 11.9 0.0219 3.84 0.0337 7.69 0.0389 11.5 0.00367 1.46 0.0108 2.92 0.0217 4.38 0.0573 8.02-0.159 15.7-2.21 23.5-1.49 0.495-1.49 0.495-3 1-0.313 0.636-0.626 1.27-0.949 1.93-1.83 3.61-5.44 4.61-9.05 6.07-4.3 1.29-8.54 1.08-13 1-0.33-0.66-0.66-1.32-1-2-0.99-0.66-1.98-1.32-3-2 0.639-0.103 1.28-0.206 1.94-0.312 0.681-0.227 1.36-0.454 2.06-0.688 0.495-1.49 0.495-1.49 1-3-1.98 0.495-1.98 0.495-4 1-0.688-1.81-0.688-1.81-1-4 0.481-0.405 0.962-0.811 1.46-1.23 2.32-2.66 1.91-4.83 1.9-8.31 0.00204-0.659 0.00409-1.32 0.0062-2 0.00301-2.18-0.0155-4.35-0.0345-6.53-0.00306-1.51-0.00493-3.03-0.00568-4.54-0.0046-3.17-0.019-6.34-0.0412-9.51-0.0283-4.07-0.0392-8.13-0.0437-12.2-0.00416-3.12-0.014-6.25-0.0259-9.37-0.0057-1.5-0.0105-3-0.0143-4.5-0.00687-2.09-0.0205-4.19-0.0363-6.28-0.00683-1.19-0.0137-2.38-0.0207-3.61-0.0116-2.99-0.0116-2.99-1.14-5.92-4.28-1.19-6.6-1.77-10.6 0.422-1.7 1.24-3.38 2.51-5.02 3.82-2.4 1.77-4.59 2.78-7.39 3.76-0.66-1.32-1.32-2.64-2-4-0.66 2.31-1.32 4.62-2 7h-1v-5h-2c-0.66 1.32-1.32 2.64-2 4-0.33-1.32-0.66-2.64-1-4h-2v-9c-1.13 0.0206-2.27 0.0413-3.44 0.0625-3.56-0.0625-3.56-0.0625-4.56-1.06-0.33 0.66-0.66 1.32-1 2h-2v3h-2c-0.247-0.784-0.495-1.57-0.75-2.38-1.49-3.13-2.06-3.45-5.25-4.62-0.673-0.258-1.35-0.516-2.04-0.781-1.98-0.756-3.97-1.49-5.96-2.22 1.36-4.09 4.18-5.74 7.5-8.25 0.632-0.486 1.26-0.972 1.92-1.47 1.27-0.976 2.54-1.95 3.81-2.92 3.04-2.33 6.01-4.73 9-7.12 1.77-1.24 1.77-1.24 4.77-2.24z" fill="#161616"/>
<path transform="translate(810,29)" d="m0 0c-0.205 0.713-0.41 1.43-0.621 2.16-0.269 0.958-0.539 1.92-0.816 2.9-0.267 0.94-0.534 1.88-0.809 2.85-1.71 7.02-1.92 13.8-1.96 21-0.0099 1.07-0.0198 2.15-0.03 3.25-0.0315 3.53-0.0563 7.07-0.0811 10.6-0.0206 2.46-0.0416 4.91-0.063 7.37-0.0551 6.45-0.105 12.9-0.153 19.4-0.0503 6.59-0.106 13.2-0.161 19.8-0.107 12.9-0.209 25.8-0.307 38.8 0.786 0.298 1.57 0.596 2.38 0.902 2.62 1.1 2.62 1.1 4.49 2.66 2.19 1.73 2.19 1.73 5.69 1.81 3.44 0.625 3.44 0.625 5.5 2.94 0.938 2.69 0.938 2.69 0.246 4.65-1.51 2.35-3.06 3.65-5.31 5.29-1.05 0.781-1.05 0.781-2.12 1.58-1.88 1.17-1.88 1.17-3.88 1.17-0.33 0.99-0.66 1.98-1 3-1.32 0.684-2.66 1.35-4 2-0.66 0.99-1.32 1.98-2 3-2.79 1.38-2.79 1.38-6 2-2.75-1.2-2.75-1.2-5.44-3.12-0.956-0.659-1.91-1.32-2.9-2-0.879-0.62-1.76-1.24-2.66-1.88-4.75-3.03-9.66-5.11-15-6.97-2.04-1.03-2.04-1.03-3.04-4.03 1.36-2.01 1.36-2.01 3.31-4.12 0.636-0.704 1.27-1.41 1.93-2.13 1.76-1.74 1.76-1.74 3.76-2.74 1.31-3.92 1.14-7.66 1.13-11.7 0.00175-0.895 0.0035-1.79 0.00531-2.71 0.00441-2.97 0.00148-5.94-0.00189-8.9 6.74e-4 -2.07 0.00164-4.14 0.0029-6.21 0.00148-4.35-6.74e-4 -8.7-0.00534-13-0.00566-5.54-0.00244-11.1 0.00357-16.6 0.00364-4.28 0.00245-8.56-1.28e-4 -12.8-6.62e-4 -2.04 1.33e-4 -4.08 0.00248-6.12 0.771-18.3 0.771-18.3-2.24-36-0.899-2.81-0.899-2.81 0.101-5.81 2.37-0.738 2.37-0.738 5.44-1.31 7.23-1.63 12.8-4.8 18.7-9.31 3.03-2.18 4.32-2.57 7.91-1.38z" fill="#131415"/>
<path transform="translate(503,50)" d="m0 0c0.66 0.33 1.32 0.66 2 1v104c0.66-0.66 1.32-1.32 2-2v3c2.47-0.344 2.47-0.344 5-1 0.33-0.66 0.66-1.32 1-2 0.99-0.33 1.98-0.66 3-1-0.33-0.33-0.66-0.66-1-1-0.0876-2-0.107-4-0.0977-6 0.00322-1.21 0.00645-2.43 0.00977-3.68 0.0126-1.92 0.0126-1.92 0.0254-3.88 0.00451-1.28 0.00902-2.57 0.0137-3.89 0.0118-3.18 0.0283-6.37 0.0488-9.55 5.54-2.51 10.5-2.33 16.5-2.31 1.03-0.0161 2.07-0.0322 3.13-0.0488l3.03-0.00195c0.906-0.00298 1.81-0.00596 2.74-0.00903 3.37 0.482 5.06 1.06 7.6 3.37 0.454 2.99 0.585 5.4 0.488 8.39-0.00707 0.817-0.0141 1.63-0.0214 2.48-0.028 2.61-0.0907 5.22-0.154 7.82-0.0251 1.77-0.0479 3.54-0.0684 5.31-0.0551 4.34-0.141 8.67-0.244 13-3.87-0.736-7.46-1.77-11.2-3.06-3.83-1.43-3.83-1.43-7.81-1.94-0.495 1.49-0.495 1.49-1 3-0.66-0.33-1.32-0.66-2-1 0.66 1.32 1.32 2.64 2 4h-2v2h3v2c1.49 0.495 1.49 0.495 3 1h-3v4h3v2h8c0.33 1.65 0.66 3.3 1 5-1.91 1.54-3.82 3.05-5.75 4.56-0.539 0.438-1.08 0.875-1.63 1.33-4.05 3.14-4.05 3.14-6.77 3-0.608-0.294-1.22-0.588-1.84-0.891-0.889-0.412-0.889-0.412-1.8-0.832l-1.95-0.98c-11.5-5.07-22.3-6.56-34.8-6.62l-3.36-0.0303c-6.47 0.0684-11.2 0.886-17.1 3.47-2.4 0.584-4.78 1.04-7.21 1.47-0.589 0.174-1.18 0.348-1.79 0.527-0.495 0.99-0.495 0.99-1 2 0-5.32 0.831-8.33 4.44-12.3 0.617-0.697 1.23-1.39 1.87-2.11 1.69-1.57 1.69-1.57 3.69-1.57 0.33-0.99 0.66-1.98 1-3 2.89-2.57 5.78-4.85 9-7l-1-2c0.722-0.0825 1.44-0.165 2.19-0.25 6.23-1.66 9.88-6.97 13.8-11.8 0.722-0.804 1.44-1.61 2.19-2.44 4.06-5.74 5.26-11.5 5.18-18.4 0.00377-0.743 0.00753-1.49 0.0114-2.25 0.00639-1.6 0.00614-3.19-1.85e-4 -4.79-0.00918-2.53 0.00118-5.06 0.0166-7.59 0.0399-7.19 0.0413-14.4 0.039-21.6-5.12e-5 -4.41 0.0191-8.82 0.0493-13.2 0.0108-2.49-0.00128-4.97-0.0138-7.46 0.00891-1.53 0.019-3.06 0.0304-4.59-0.00974-0.686-0.0195-1.37-0.0295-2.08 0.076-5.12 1.48-7.64 4.53-11.5z" fill="#161616"/>
<path transform="translate(723,73)" d="m0 0c3.89 2.12 7.06 4.67 10.4 7.6 3.63 3.09 5.55 3.6 10.2 3.4 2.94-0.125 2.94-0.125 5.44 0 0.66 0.66 1.32 1.32 2 2-4.88 13.4-4.88 13.4-10.6 16.4-3.96 4.34-3.04 9.26-2.93 14.9 0.0047 1.21 0.00941 2.41 0.0143 3.65 0.0214 3.86 0.078 7.71 0.134 11.6 0.0165 2.6 0.0309 5.2 0.043 7.79 0.034 4.76 0.0689 9.51 0.139 14.3 0.0129 0.956 0.0257 1.91 0.039 2.9 0.142 2.35 0.356 4.33 1.15 6.54 3.51 1.93 6.86 2.34 10.8 2.62 1.46 0.112 1.46 0.112 2.96 0.227 1.1 0.0735 1.1 0.0735 2.23 0.148-2.3 5.17-6.18 8.79-10.1 12.8-0.726 0.801-1.45 1.6-2.2 2.43-5.38 5.55-5.38 5.55-9.14 6.13-7.31-0.66-13-4.2-18.5-8.8-3.77-4.69-4.31-9.35-4.3-15.2-0.00373-1.31-0.00746-2.62-0.0113-3.96 0.0023-0.691 0.00461-1.38 0.00698-2.1 0.00563-2.18-0.00362-4.35-0.0172-6.53-0.037-6.19-0.0556-12.4-0.0444-18.6 0.00585-3.79-0.0124-7.59-0.0459-11.4-0.00795-1.44-0.00668-2.88 0.00402-4.33 0.0143-2.01-0.00462-4.03-0.025-6.04-6.29e-4 -1.15-0.00126-2.29-0.00191-3.47-0.386-3.14-0.386-3.14-3-5.31-2.67-1.66-4.59-2.06-7.63-2.63-0.66-0.99-1.32-1.98-2-3 5.42-6.78 5.42-6.78 9-9h2v-2c1.9-1.69 1.9-1.69 4.38-3.56 0.812-0.62 1.62-1.24 2.46-1.88 2.16-1.56 2.16-1.56 4.16-2.56 0.33-0.99 0.66-1.98 1-3h2v-2z" fill="#131415"/>
<path transform="translate(1511,73)" d="m0 0c3 1 3 1 4.69 2.88 3.14 2.88 6.08 4.47 10.3 5.12 4.51-0.651 7.98-1.92 11.1-5.25 0.619-0.578 1.24-1.16 1.88-1.75 3.75 0.25 3.75 0.25 7 1-0.259 1.4-0.533 2.79-0.812 4.19-0.226 1.17-0.226 1.17-0.457 2.36-0.849 2.85-2.12 4.96-3.73 7.46-0.556 0.897-1.11 1.79-1.68 2.72-0.579 0.918-1.16 1.84-1.75 2.78-0.576 0.918-1.15 1.84-1.75 2.78-2.55 3.81-5.44 7.27-8.38 10.8-1.43 1.73-2.83 3.48-4.12 5.31-0.433 0.536-0.866 1.07-1.31 1.62h-2c-0.33 0.99-0.66 1.98-1 3h-2c0.33 0.66 0.66 1.32 1 2-0.495 0.99-0.495 0.99-1 2-2.65 0.633-2.65 0.633-5.94 1.12-1.08 0.168-2.16 0.335-3.28 0.508-2.79 0.367-2.79 0.367-4.79 0.367-1.63 1.46-1.63 1.46-3 3-0.99-0.495-0.99-0.495-2-1 2.16-6.61 5.69-9.69 11-14 1.86-1.6 3.38-3.13 5-5v-4c-0.892-0.254-1.78-0.508-2.7-0.77-1.17-0.344-2.34-0.688-3.55-1.04l-3.52-1.02c-2.99-1.08-4.78-2.24-7.23-4.17-2.67-0.251-2.67-0.251-5 0-0.837 4.34-1.11 8.41-1.06 12.8 0.00773 1.28 0.0155 2.55 0.0234 3.87 0.0196 2.01 0.0392 4.02 0.0596 6.02 0.0181 1.95 0.0301 3.91 0.042 5.86 0.0116 1.16 0.0232 2.32 0.0352 3.52-0.0977 2.91-0.0977 2.91-1.1 5.91v3c-2.64 0.33-5.28 0.66-8 1v2h-4v2h-5v2c1.32 0.33 2.64 0.66 4 1h-15c-1-7-1-7 0-10 0.0974-2.87 0.14-5.71 0.133-8.58 9.57e-4 -0.845 0.00191-1.69 0.0029-2.56 6.81e-4 -1.79-0.00116-3.58-0.00534-5.37-0.00532-2.72-6.46e-5 -5.44 0.00635-8.16-6.61e-4 -1.74-0.00194-3.48-0.00391-5.22 0.00202-0.808 0.00405-1.62 0.00613-2.45-0.0148-3.62-0.185-6.98-0.706-10.6-0.456-3.25-0.244-4.42 1.57-7.08 3.47 0.458 6.67 0.891 10 2 11.2 1.41 22.3-1.9 31.2-8.62 1.5-1.2 2.97-2.44 4.43-3.69 0.789-0.559 1.58-1.12 2.39-1.7z" fill="#131415"/>
<path transform="translate(662,74)" d="m0 0c3.78 1.73 6.1 4.02 9 7 2.98 1.99 3.92 2.29 7.31 2.56 3.6 0.329 7.13 0.798 10.7 1.44-0.118 6.63-1.8 9.62-6.31 14.4-1.69 1.57-1.69 1.57-3.69 2.57v59c1.65 0.66 3.3 1.32 5 2 5.71 2.42 5.71 2.42 6.88 4.79 0.179 3.27-1.25 4.7-3.19 7.28-0.953 1.29-0.953 1.29-1.93 2.6-0.581 0.772-1.16 1.54-1.76 2.34-0.66 0.99-1.32 1.98-2 3h-2c-0.144 0.639-0.289 1.28-0.438 1.94-0.562 2.06-0.562 2.06-1.56 3.06-8.48 0.946-14.8-1.71-21.6-6.73-1.81-1.58-2.81-2.94-3.45-5.27l1-2c-1.98-0.33-3.96-0.66-6-1 0.33-1.98 0.66-3.96 1-6-0.66-0.33-1.32-0.66-2-1 1.49-0.99 1.49-0.99 3-2 0.509-2.42 0.509-2.42 0.512-5.23 0.0354-1.03 0.0709-2.06 0.107-3.12 0.0226-1.08 0.0451-2.16 0.0684-3.27 0.0342-1.09 0.0683-2.18 0.104-3.3 0.0827-2.69 0.152-5.38 0.209-8.08 0.66 0.66 1.32 1.32 2 2-0.00524-0.816-0.0105-1.63-0.0159-2.47-0.0173-3.09-0.0297-6.17-0.0391-9.26-0.00738-1.97-0.0201-3.94-0.033-5.91-0.0199-7.84 0.279-15.6 1.09-23.4 0.66 0.66 1.32 1.32 2 2 2.5 0.167 2.5 0.167 5 0h6c-0.33-0.99-0.66-1.98-1-3-1.32-0.33-2.64-0.66-4-1-0.33-2.97-0.66-5.94-1-9h-9c-0.33-1.65-0.66-3.3-1-5 1.05-0.464 1.05-0.464 2.12-0.938 4.09-2.93 6.28-6.81 8.88-11.1z" fill="#131415"/>
<path transform="translate(94,56)" d="m0 0h6c0.0697 9.64 0.123 19.3 0.155 28.9 0.0156 4.48 0.0368 8.95 0.0709 13.4 0.0327 4.32 0.0506 8.65 0.0583 13 0.00552 1.65 0.0163 3.29 0.0326 4.94 0.0219 2.31 0.0248 4.63 0.0234 6.94 0.00666 1.31 0.0133 2.63 0.0202 3.98-0.683 7.21-3.33 12.7-8.36 17.8h-2c-0.33 0.99-0.66 1.98-1 3-6.05 4.87-12.4 5.84-20 6 0.144-0.735 0.289-1.47 0.438-2.23 3.62-21.9 1.73-44.8 0.562-66.8-1.98-0.66-3.96-1.32-6-2-0.487-3.14-0.77-4.99 0-8 2.6-2.66 5.75-4.24 9-6 2-1.19 4-2.37 6-3.56 4.97-2.87 9.97-5.68 15-8.44v-1z" fill="#131415"/>
<path transform="translate(225,104)" d="m0 0c3.88 1.75 3.88 1.75 5 4-0.33 0.33-0.66 0.66-1 1 0.286 1.68 0.618 3.34 1 5h5v2c0.66 0.33 1.32 0.66 2 1h-2v2h5v7h6c0.33 8.58 0.66 17.2 1 26 0.66 0.33 1.32 0.66 2 1 0.182 2.14 0.269 4.29 0.312 6.44 0.367 6.9 2.05 11.7 5.69 17.6-3.69 1.23-6.32 0.842-10.2 0.5-5.44-0.439-10.4-0.488-15.8 0.5-0.33 1.98-0.66 3.96-1 6 0.557 0.227 1.11 0.454 1.69 0.688 6.47 3.67 13 11.2 15.3 18.3 0.637 5.5 0.763 10.4-1.62 15.4-4.39 4.74-7.74 8.24-14.3 8.71-4.36-0.311-7.93-2.04-11-5.14 0.0625-1.81 0.0625-1.81 1-4 1.27-1.18 1.27-1.18 2.56-2.38 2.68-2.37 2.68-2.37 2.77-5.41-0.388-3.72-1.49-6.07-3.27-9.34-3.66-6.81-4.79-12.1-4.06-19.9 1.38-2.94 1.38-2.94 3-5 2.39-3.58 2.26-5.2 2.29-9.46 0.00683-0.651 0.0137-1.3 0.0207-1.97 0.0136-1.41 0.0226-2.82 0.0277-4.23 0.00829-2.23 0.0288-4.46 0.0525-6.69 0.0564-5.54 0.0917-11.1 0.128-16.6 0.0312-4.68 0.0704-9.37 0.12-14.1 0.0201-2.2 0.0284-4.4 0.0363-6.6 0.013-1.35 0.0265-2.69 0.0406-4.04 0.00729-1.18 0.0146-2.35 0.0221-3.57 0.265-2.76 0.265-2.76 2.27-4.76z" fill="#131415"/>
<path transform="translate(450,20)" d="m0 0c0.553 0.142 1.11 0.284 1.68 0.431 7.65 1.77 15.1 1.83 22.9 1.76 1.26-6.45e-4 2.53-0.00129 3.83-0.00195 11.1 0.43 11.1 0.43 21.6-2.19 1.75-0.106 3.5-0.149 5.26-0.161 1.65-0.0144 1.65-0.0144 3.33-0.0291 1.19-0.00425 2.39-0.0085 3.61-0.0129 1.22-0.0057 2.45-0.0114 3.71-0.0173 2.6-0.00946 5.19-0.016 7.79-0.0198 3.96-0.00968 7.92-0.0407 11.9-0.0723 2.52-0.00653 5.04-0.0118 7.56-0.0156 1.77-0.0185 1.77-0.0185 3.58-0.0374 7.36 0.0198 12.6 0.516 18.5 5.09 2 2.03 3.9 4.1 5.74 6.27 0.557 0.647 1.11 1.29 1.69 1.96 4.52 6.41 3.19 12.5 1.93 19.9-0.202 1.05-0.405 2.1-0.613 3.18-1.49 0.495-1.49 0.495-3 1-0.33-1.65-0.66-3.3-1-5-0.66 0.99-1.32 1.98-2 3-1.41-2.64-2.37-5.07-3-8h2v-2h-2v-3c-1.32 0.66-2.64 1.32-4 2v-3h-3v-2h-4v-2c-0.804 0.0206-1.61 0.0413-2.44 0.0625-2.56-0.0625-2.56-0.0625-3.56-1.06-2.31-0.0993-4.62-0.13-6.94-0.125-1.27-0.00258-2.53-0.00516-3.84-0.00781-3.11-0.0922-3.11-0.0922-5.22 1.13-2.12 0.0973-4.25 0.13-6.38 0.125-1.14 0.00258-2.28 0.00516-3.46 0.00781-4.92-0.206-4.92-0.206-7.16-1.13l-1-3c-1.65 0.33-3.3 0.66-5 1v2c-6.03 0.718-11.9 1.09-18 0.938-2.1-0.0775-2.1-0.0775-4.03 1.06v-2h-32v2c5.94 0.99 5.94 0.99 12 2v1c-2.1 0.027-4.21 0.0464-6.31 0.0625-1.17 0.0116-2.34 0.0232-3.55 0.0352-3.14-0.0977-3.14-0.0977-6.14-1.1-2.27-3.29-2.45-6.65-2.75-10.6-0.098-1.14-0.196-2.27-0.297-3.44 0.0469-3 0.0469-3 2.05-6z" fill="#131415"/>
<path transform="translate(885,100)" d="m0 0c3.36 0.224 5.45 0.586 8.16 2.64 2.43 3.13 2.35 5.04 2.38 8.98 0.0102 0.656 0.0204 1.31 0.031 1.99 0.0277 2.16 0.0259 4.32 0.0213 6.49 0.00778 1.51 0.0164 3.01 0.026 4.52 0.0149 3.16 0.0144 6.31 0.00381 9.47-0.0116 4.04 0.0223 8.08 0.0687 12.1 0.0295 3.11 0.0312 6.22 0.025 9.33 0.00103 1.49 0.0115 2.98 0.0316 4.47 0.138 11.6 0.138 11.6-2.04 15-3.27 2.86-6.4 3.65-10.7 3.6-1.47 0.0193-1.47 0.0193-2.96 0.0391-4.32-0.926-7.34-2.09-10.1-5.66-1.04-4.62-0.888-9.23-0.789-13.9 0.00545-1.38 0.00822-2.75 0.00845-4.13 0.00772-2.88 0.0386-5.75 0.0877-8.63 0.0624-3.69 0.0808-7.37 0.0838-11.1 0.0047-2.84 0.0255-5.68 0.0519-8.51 0.0121-1.36 0.0208-2.72 0.0261-4.08 0.0112-1.9 0.0448-3.8 0.0795-5.69 0.0145-1.08 0.0289-2.16 0.0438-3.27 0.462-3.04 1-3.86 3.41-5.68 1.85-1.24 3.73-2.45 5.62-3.62 3.37-1.95 3.37-1.95 6.38-4.38z" fill="#FDFDFD"/>
<path transform="translate(56,56)" d="m0 0c-0.766 3.57-1.69 6.75-4.39 9.33-10.4 10.8-15.1 26.6-15 41.1-0.0116 1.07-0.0232 2.14-0.0352 3.24 0.0226 6.16 0.675 11.3 2.86 17.1 0.661 2.71 0.149 4.54-0.455 7.23 0.495 0.99 0.495 0.99 1 2h-4v-2c-0.784 0.206-1.57 0.412-2.38 0.625-0.866 0.124-1.73 0.248-2.62 0.375l-2-2c-2.41 6.89-2.41 6.89-4 14-0.33-1.32-0.66-2.64-1-4h-4c-0.33 1.32-0.66 2.64-1 4v-4h-4c-0.33 0.99-0.66 1.98-1 3-3-2-3-2-4-5-0.237-4.18-0.185-8.37-0.188-12.6l-0.0371-3.46c-0.0355-20.7 8.45-39 21.2-55 0.474-0.626 0.949-1.25 1.44-1.9 2.51-3.22 4.94-5.24 8.56-7.1 1.03-0.557 2.06-1.11 3.12-1.69 2.88-1.31 2.88-1.31 5.88-1.31v-2c2.49-1.25 3.41-0.777 6 0z" fill="#131415"/>
<path transform="translate(895,105)" d="m0 0c1.32 0.33 2.64 0.66 4 1 0.99 3.96 1.98 7.92 3 12h4c0.33 1.65 0.66 3.3 1 5h5v-4h2v4h6c0.66 5.94 1.32 11.9 2 18h1c0.0588 4.12 0.0938 8.25 0.125 12.4 0.0168 1.16 0.0335 2.31 0.0508 3.5 0.0393 6.96-0.462 13.4-2.18 20.1-1.49 0.495-1.49 0.495-3 1-0.313 0.636-0.626 1.27-0.949 1.93-1.83 3.61-5.44 4.61-9.05 6.07-4.3 1.29-8.54 1.08-13 1-0.33-0.66-0.66-1.32-1-2-0.99-0.66-1.98-1.32-3-2 0.639-0.103 1.28-0.206 1.94-0.312 0.681-0.227 1.36-0.454 2.06-0.688 0.33-0.99 0.66-1.98 1-3-1.98 0.495-1.98 0.495-4 1-0.688-1.81-0.688-1.81-1-4 0.48-0.404 0.959-0.809 1.45-1.23 2.32-2.66 1.95-4.87 1.98-8.36 0.0153-0.996 0.0153-0.996 0.0309-2.01 0.0302-2.19 0.0394-4.38 0.0485-6.57 0.0168-1.52 0.035-3.04 0.0544-4.56 0.0475-4 0.0773-8 0.103-12 0.0298-4.08 0.0763-8.16 0.121-12.2 0.0861-8.01 0.153-16 0.209-24z" fill="#131415"/>
<path transform="translate(1539,117)" d="m0 0c2 2 2 2 2.23 4.3-0.00746 0.961-0.0149 1.92-0.0226 2.91-0.00338 1.09-0.00676 2.18-0.0102 3.3-0.0135 1.18-0.0269 2.36-0.0408 3.58-0.0052 1.21-0.0104 2.42-0.0158 3.66-0.0179 3.88-0.049 7.75-0.0819 11.6-0.0276 3.87-0.0523 7.74-0.0712 11.6-0.0123 2.41-0.0299 4.82-0.0533 7.23-0.00653 1.09-0.0131 2.19-0.0198 3.32-0.0124 1.44-0.0124 1.44-0.025 2.92 0.098 2.35 0.438 4.31 1.11 6.56-1.11-0.0236-1.11-0.0236-2.24-0.0476-3.4-0.0629-6.8-0.102-10.2-0.14-1.16-0.0251-2.33-0.0503-3.53-0.0762-6.18-0.0522-11.4 0.223-17.2 2.54-2.94 1.13-5.75 1.46-8.88 1.72-0.495-0.495-0.495-0.495-1-1-1.48 0.495-1.48 0.495-3 1-3-4.75-3-4.75-3-7h-3v-2c-1.39-0.0928-1.39-0.0928-2.81-0.188-3.19-0.812-3.19-0.812-5.06-3.38-0.371-0.804-0.743-1.61-1.12-2.44l2-1c-0.66-1.32-1.32-2.64-2-4h3v-3c-0.66-0.33-1.32-0.66-2-1 6.75-0.335 13-0.58 19 3 1.1 1.02 2.16 2.09 3.19 3.19 2.47 3.09 2.47 3.09 5.49 2.99 0.767-0.058 1.53-0.116 2.32-0.176 0.0146-0.685 0.0292-1.37 0.0442-2.08 0.075-3.14 0.172-6.28 0.268-9.42 0.0226-1.08 0.0451-2.16 0.0684-3.27 0.215-6.4 0.972-11.4 3.62-17.2 0.99 0.33 1.98 0.66 3 1 0.33-0.66 0.66-1.32 1-2h2c0.66 0.66 1.32 1.32 2 2 3.16-1.37 3.99-1.99 6-5v-2-2h4c0.33-0.99 0.66-1.98 1-3v3h2c-1.63-4.96-1.63-4.96-5.19-8.44-0.598-0.186-1.2-0.371-1.81-0.562 3.01-1.51 5.68-1.18 9-1z" fill="#131415"/>
<path transform="translate(1076,152)" d="m0 0v2c1.98-0.33 3.96-0.66 6-1-0.278 0.959-0.278 0.959-0.562 1.94-0.144 0.681-0.289 1.36-0.438 2.06 1.05 1.16 1.05 1.16 3 2-0.495-2.47-0.495-2.47-1-5h3c0.866-0.309 0.866-0.309 1.75-0.625 3.38-0.563 6.02 0.605 9.25 1.62 1.3 0.248 1.3 0.248 2.62 0.5 2.61 0.55 4.92 1.45 7.38 2.5v2h-3c0.66 0.99 1.32 1.98 2 3h-2v3h2v4c0.58-0.0954 1.16-0.191 1.76-0.289 5-0.71 8.48-0.786 13.2 1.29-4.18 6.43-8.47 12.6-14 18-0.822-0.398-1.64-0.797-2.49-1.21-16.5-7.82-31.5-11.3-49.5-5.79-2.45 1.04-4.8 2.13-7.13 3.43-1.87 0.574-1.87 0.574-4.11-0.32-0.58-0.365-1.16-0.73-1.76-1.11 6.38-13.4 6.38-13.4 11-19h2c0.245-0.597 0.49-1.19 0.742-1.81 3.39-5.9 13.5-11.2 20.3-11.2z" fill="#161616"/>
<path transform="translate(211 97.8)" d="m0 0c5.13 1.8 9.27 3.53 12.4 8.19 0.241 2.9 0.241 2.9 0.227 6.49 2.92e-4 0.654 5.84e-4 1.31 8.85e-4 1.98-0.00139 2.16-0.0169 4.32-0.0326 6.48-0.00373 1.5-0.00658 3-0.00858 4.49-0.00763 3.94-0.0273 7.88-0.0494 11.8-0.0205 4.02-0.0296 8.04-0.0397 12.1-0.0214 7.89-0.0556 15.8-0.0977 23.7-0.33-1.32-0.66-2.64-1-4h-4c-3.2-1.66-6.1-3.3-8.94-5.5-2.62-1.9-5.42-3.18-8.36-4.54-1.71-0.965-1.71-0.965-2.71-2.96-0.135-1.6-0.211-3.2-0.256-4.8-0.0435-1.5-0.0435-1.5-0.0878-3.03-0.0975-4.58-0.172-9.15-0.226-13.7-0.0367-2.41-0.0912-4.82-0.164-7.24-0.104-3.48-0.148-6.96-0.18-10.4-0.0433-1.07-0.0866-2.15-0.131-3.25 0.0112-4.44 0.0374-7.33 2.98-10.8 3.66-2.98 5.9-4.66 10.7-4.91z" fill="#FDFDFD"/>
<path transform="translate(550,125)" d="m0 0c5.53-0.194 9.76 0.252 15 2v3h9c0.049 1.37 0.098 2.75 0.148 4.16 0.0751 1.82 0.151 3.64 0.227 5.46 0.0309 0.904 0.0619 1.81 0.0938 2.74 0.216 4.94 0.811 8.96 2.53 13.6 0.27 1.95 0.481 3.91 0.625 5.88 0.0748 0.967 0.15 1.93 0.227 2.93 0.049 0.724 0.098 1.45 0.148 2.2-1.06 0.182-2.12 0.364-3.22 0.551-8.37 1.47-15.9 3.13-23.6 6.79-0.99 0.467-1.98 0.933-3 1.41-0.914 0.449-1.83 0.897-2.77 1.36-2.42 0.891-2.42 0.891-5.42-0.109v-3c-0.763 0.186-1.53 0.371-2.31 0.562-2.69 0.438-2.69 0.438-5.69-0.562v-2h-3v-7h-3v-6l2-1c-0.495-1.49-0.495-1.49-1-3 3.38 0.787 6.64 1.84 9.94 2.94 1.02 0.339 2.04 0.678 3.09 1.03 2.69 0.935 5.33 1.98 7.97 3.04v-34c0.66 0.66 1.32 1.32 2 2h3v-2h-3v-3z" fill="#131415"/>
<path transform="translate(1417 74.1)" d="m0 0c1.82 0.855 1.82 0.855 3.57 3.61 2.53 3.65 4.82 5.08 8.64 7.17 0.531 0.356 1.06 0.712 1.61 1.08v2h5v-2c1.94-0.562 1.94-0.562 4-1 1 1 1 1 1.12 2.79-0.338 6.16-2.26 9.31-6.43 13.8-1.69 1.43-1.69 1.43-3.69 1.43v2h-2v49h-1v-22h-2v4h-3v-4h-2v4h-2v-9h-5c1.48-0.495 1.48-0.495 3-1-0.33-2.64-0.66-5.28-1-8h-3v9c-1.48-0.495-1.48-0.495-3-1h2c-0.33-2.64-0.66-5.28-1-8h-2v-11c-0.66-0.33-1.32-0.66-2-1 0.33-0.33 0.66-0.66 1-1-0.66-0.33-1.32-0.66-2-1-0.33 0.66-0.66 1.32-1 2h-2v-2h-2v-2c-2.53-1.32-5.02-2.4-7.69-3.44-1.09-0.516-2.19-1.03-3.31-1.56-0.33-0.99-0.66-1.98-1-3 3.9-4.31 8.35-7.57 13.1-10.9 1.93-1.37 3.83-2.76 5.72-4.18 1.31-0.969 1.31-0.969 2.64-1.96 0.782-0.589 1.56-1.18 2.37-1.79 2.19-1.15 2.19-1.15 4.37-1.01z" fill="#151616"/>
<path transform="translate(1384,95)" d="m0 0c0.33 0.99 0.66 1.98 1 3 0.99 0.33 1.98 0.66 3 1 0.66-0.99 1.32-1.98 2-3 1.27 0.622 2.54 1.25 3.81 1.88 0.708 0.348 1.42 0.696 2.14 1.05 2.04 1.07 2.04 1.07 5.04 3.07v2h2c1.35 2.71 1.13 4.84 1.15 7.87 0.00638 1.23 0.0128 2.46 0.0193 3.73 0.00153 1.35 0.00264 2.7 0.00337 4.05 0.00321 1.38 0.00658 2.76 0.0101 4.14 0.00599 2.89 0.00784 5.79 0.00725 8.68-1.02e-4 3.71 0.0136 7.42 0.0308 11.1 0.0111 2.85 0.0131 5.7 0.0126 8.55 0.00118 1.37 0.00561 2.74 0.0133 4.1 0.00979 1.91 0.00566 3.83 8.95e-4 5.74 0.00143 1.09 0.00285 2.18 0.00432 3.3-0.247 2.7-0.247 2.7-2.25 5.7-6.49 1.02-9.84-0.668-15.1-4.39-2.69-2.3-3.82-3.92-4.13-7.47 0.00143-1.16 0.00285-2.33 0.00432-3.52-0.00308-1.32-0.00615-2.64-0.00932-3.99 0.0069-1.44 0.0142-2.88 0.0218-4.32 0.00119-1.47 0.00164-2.95 0.00139-4.42 0.00156-3.09 0.00985-6.17 0.0233-9.26 0.017-3.96 0.0208-7.93 0.0201-11.9 2.71e-4 -3.04 0.00575-6.08 0.013-9.12 0.00319-1.46 0.00515-2.92 0.00589-4.39 0.00216-2.04 0.0117-4.07 0.0216-6.11 0.00381-1.16 0.00762-2.32 0.0116-3.52 0.134-2.61 0.134-2.61 1.13-3.61z" fill="#FDFDFD"/>
<path transform="translate(335 72.6)" d="m0 0c2.31 1.68 2.73 2.79 3.62 5.48 1.76 4.79 3.84 9.32 6.12 13.9 0.344 0.69 0.688 1.38 1.04 2.09 2.43 4.8 5.11 9.35 8.15 13.8 0.934 2.11 0.934 2.11 0.922 4.67-1.38 3.41-3.15 4.16-6.36 5.88-1.08 0.59-2.16 1.18-3.27 1.79-1.11 0.585-2.21 1.17-3.36 1.77-2.02 1.1-4.04 2.21-6.06 3.31-0.878 0.471-1.76 0.941-2.66 1.43-2.44 1.31-2.44 1.31-5.28 3.26-3.19 0.125-3.19 0.125-6 0v-3c-0.33-0.33-0.66-0.66-1-1-0.683-1.33-1.35-2.66-2-4 1.98-1.32 3.96-2.64 6-4-0.551-4.57-1.78-7.95-3.94-12-1.64-3.1-3.05-5.96-4.13-9.3-0.654-2.81-0.654-2.81-2.87-3.95-0.681-0.248-1.36-0.495-2.06-0.75-0.99-0.66-1.98-1.32-3-2 0.66-0.33 1.32-0.66 2-1-1.32-0.66-2.64-1.32-4-2 0.33-0.66 0.66-1.32 1-2-0.66-0.33-1.32-0.66-2-1 0.701-0.242 1.4-0.485 2.12-0.734 6.65-2.35 12.9-4.99 19-8.48 0.7-0.384 1.4-0.768 2.12-1.16 0.624-0.358 1.25-0.717 1.89-1.09 1.86-0.539 1.86-0.539 3.98 0.102z" fill="#131415"/>
<path transform="translate(1085,50)" d="m0 0c5.4 1.14 7.02 4.58 10 9 0.401 0.576 0.802 1.15 1.21 1.75 4.22 6.37 7.41 13.4 10.8 20.2 0.956 1.93 1.93 3.86 2.91 5.78 10.3 20.2 10.3 20.2 10.1 27.3-0.71-0.00524-1.42-0.0105-2.15-0.0159-3.26-0.021-6.52-0.0339-9.79-0.0466-1.12-0.00838-2.23-0.0168-3.38-0.0254-6.32-0.0185-12.4 0.244-18.7 1.09-1.37-2.75-1.12-4.94-1.11-8.01 7.55e-5 -1.26 1.51e-4 -2.52 2.29e-4 -3.82 0.00511-1.38 0.0103-2.76 0.0156-4.14 0.00186-1.41 0.00329-2.82 0.00429-4.23 0.00382-3.71 0.0136-7.42 0.0247-11.1 0.0102-3.79 0.0148-7.57 0.0198-11.4 0.0107-7.43 0.0278-14.9 0.0488-22.3z" fill="#FDFDFD"/>
<path transform="translate(1127,82)" d="m0 0c2.12-0.0539 4.25-0.0927 6.38-0.125 1.18-0.0232 2.37-0.0464 3.59-0.0703 3.04 0.195 3.04 0.195 5.04 2.2h-2v4c0.66 0.33 1.32 0.66 2 1v4c0.562 1.92 0.562 1.92 1.38 3.81 1.1 2.73 1.86 5.17 2.56 8.06 0.351 1.03 0.701 2.06 1.06 3.12 0.681 0.309 1.36 0.619 2.06 0.938 0.639 0.351 1.28 0.701 1.94 1.06 0.686 2.69 0.82 5.21 1 8h2c1.5 3.37 2 5.2 2 9h2v3h2v3h2c-1 3-1 3-2 4-0.33 0.99-0.66 1.98-1 3-1.32-0.33-2.64-0.66-4-1v3l2 1c0.495-0.99 0.495-0.99 1-2 1.65 0.66 3.3 1.32 5 2v7h-7v-2c-2.97-0.495-2.97-0.495-6-1-0.33 0.99-0.66 1.98-1 3h-4c-0.33 1.32-0.66 2.64-1 4-0.33-1.65-0.66-3.3-1-5h2c-0.66-1.65-1.32-3.3-2-5h5c0.33-2.97 0.66-5.94 1-9h-2v-2c-1.48-0.495-1.48-0.495-3-1-2.81-2.24-3.82-4.65-5-8-1.98 0.66-3.96 1.32-6 2-0.125-5.75-0.125-5.75 1-8h-8c-0.412-1.11-0.825-2.23-1.25-3.38-1.4-3.34-2.48-4.1-5.75-5.62-0.875-2.44-0.875-2.44-1-5 0.99-1.48 0.99-1.48 2-3 0.459-2.97 0.459-2.97 0.625-6.19 0.0748-1.09 0.15-2.17 0.227-3.29 0.049-0.831 0.098-1.66 0.148-2.52h2c0.33-1.65 0.66-3.3 1-5h3v-2z" fill="#131415"/>
<path transform="translate(641,101)" d="m0 0c6.48 0.489 6.48 0.489 8.71 2.68 1.62 2.91 1.66 4.84 1.65 8.17 3e-3 1.18 6e-3 2.36 0.00909 3.57-0.0123 1.27-0.0247 2.53-0.0374 3.84-0.00187 1.3-0.00375 2.6-0.00568 3.94-0.0046 2.75-0.019 5.5-0.0412 8.25-0.0284 3.53-0.0392 7.06-0.0437 10.6-0.00514 3.36-0.0197 6.73-0.0344 10.1-0.00637 1.91-0.00637 1.91-0.0129 3.86-0.00961 1.17-0.0192 2.34-0.0291 3.54-0.00683 1.03-0.0137 2.07-0.0207 3.13-0.14 2.33-0.14 2.33-1.14 3.33-7.84 1.27-13.2-0.394-19.6-4.93-4.62-4-7.92-8.85-8.39-15.1-0.103-1.22-0.206-2.43-0.312-3.69 0.0299-5.21 2.17-9.65 4.31-14.3 4.62 1.8 7.5 5.54 10.7 9.19 2.79 2.98 4.05 3.79 8.19 4.15 1.04-0.111 2.08-0.222 3.14-0.336-1.26-4.46-2.86-7.5-5.81-11.1-0.714-0.862-1.43-1.72-2.16-2.61-2.23-2.56-4.59-4.95-7.02-7.32-1.67-2-3.33-4-5-6-0.908-0.887-1.82-1.77-2.75-2.69-2.25-2.31-2.25-2.31-3.25-5.31 1.04-0.133 2.07-0.266 3.14-0.402 1.37-0.178 2.74-0.357 4.11-0.535 0.682-0.087 1.36-0.174 2.07-0.264 3.28-0.43 6.5-0.887 9.68-1.8v-2z" fill="#FDFDFD"/>
<path transform="translate(620,138)" d="m0 0h2c0.0864 0.846 0.173 1.69 0.262 2.56 1.03 8.35 2.14 14.8 8.94 20.2 5.67 3.71 11.1 5.43 17.8 6.25 0.495 1.49 0.495 1.49 1 3h-2v3c2.97 0.495 2.97 0.495 6 1v2c-0.859 0.224-1.72 0.449-2.6 0.68-4.53 1.76-7.79 4.68-11.4 7.86-3.04 2.52-5.13 3.77-9.14 3.83-11-1.06-21.8-5.72-28.9-14.4-1.69-2.94-1.69-2.94-3-6-0.392-0.887-0.784-1.77-1.19-2.69-1.17-4.77-0.969-9.42-0.812-14.3 0.99-0.33 1.98-0.66 3-1 0.33 1.65 0.66 3.3 1 5 1.58 0.0815 3.17 0.139 4.75 0.188 0.882 0.0348 1.76 0.0696 2.67 0.105 3.02-0.344 4.33-1.3 6.58-3.29v2c1.65-0.66 3.3-1.32 5-2-0.247-1.67-0.247-1.67-0.5-3.38-0.5-3.62-0.5-3.62-0.5-5.62h2c-0.33-1.65-0.66-3.3-1-5z" fill="#151515"/>
<path transform="translate(94,56)" d="m0 0h6c0.116 16.4-0.00959 32.7-1 49h-10v-2h-2v-7h-2v-2c-2.02 0.0977-4.04 0.195-6.05 0.293-0.642-0.0967-1.28-0.193-1.95-0.293-0.66-0.99-1.32-1.98-2-3-0.33 17.5-0.66 35-1 53h-2c-0.895-3.81-1.1-7.3-1.06-11.2 0.00838-1.22 0.0168-2.43 0.0254-3.69 0.0184-1.94 0.0184-1.94 0.0371-3.92 0.0837-13.4-0.288-26.8-1-40.2-1.98-0.66-3.96-1.32-6-2-0.487-3.14-0.77-4.99 0-8 2.6-2.66 5.75-4.24 9-6 2-1.19 4-2.37 6-3.56 4.97-2.87 9.97-5.68 15-8.44v-1z" fill="#161616"/>
<path transform="translate(915 192)" d="m0 0c4.81 4.29 8.76 9.2 9.94 15.7-0.0945 5.86-1.7 9.38-5.62 13.7-0.804 0.722-1.61 1.44-2.44 2.19-0.66 0.66-1.32 1.32-2 2-5.15 1.71-10.9 1.67-16 0.0625-2-1.06-2-1.06-3-2.06-0.0408-2-0.0425-4 0-6h-7c0.33-1.65 0.66-3.3 1-5h-2c-0.33 1.32-0.66 2.64-1 4v-2h-2v-5h-4c-0.103-1.11-0.206-2.23-0.312-3.38-0.227-1.2-0.454-2.39-0.688-3.62-0.99-0.66-1.98-1.32-3-2v-3c2.06-0.986 4.12-1.96 6.19-2.94 1.15-0.545 2.3-1.09 3.48-1.65 7.63-3.23 20.7-4.8 28.5-0.973z" fill="#131415"/>
<path transform="translate(532 122)" d="m0 0c1.03-0.0161 2.07-0.0322 3.13-0.0488 0.999-6.45e-4 2-0.00129 3.03-0.00195 0.906-0.00298 1.81-0.00596 2.74-0.00903 3.37 0.482 5.06 1.06 7.6 3.37 0.454 2.99 0.585 5.4 0.488 8.39-0.00707 0.817-0.0141 1.63-0.0214 2.48-0.028 2.61-0.0907 5.22-0.154 7.82-0.0251 1.77-0.0479 3.54-0.0684 5.31-0.0551 4.34-0.141 8.67-0.244 13-3.79-0.726-7.34-1.7-11-2.94-1.01-0.339-2.02-0.678-3.06-1.03-1.86-0.654-3.7-1.35-5.52-2.1-3.09-1.19-6.18-1.76-9.43-2.37-1.99-0.562-1.99-0.562-3.99-2.56-0.227-2.71-0.227-2.71-0.195-6.1 0.00645-1.21 0.0129-2.42 0.0195-3.67 0.0168-1.27 0.0335-2.54 0.0508-3.85 0.0135-1.92 0.0135-1.92 0.0273-3.88 0.0236-3.17 0.0566-6.33 0.0977-9.5 5.54-2.51 10.5-2.33 16.5-2.31z" fill="#FDFDFD"/>
<path transform="translate(1162,15)" d="m0 0c1.24 0.866 1.24 0.866 2.5 1.75 1.17 0.752 2.33 1.5 3.5 2.25 0.534 0.382 1.07 0.763 1.62 1.16 4.69 2.92 9.2 3.21 14.6 3.22 0.698 0.00161 1.4 0.00322 2.11 0.00488 3.75-0.0813 6.39-0.514 9.64-2.38 2.25 0.375 2.25 0.375 4 1-0.399 7.99-5.8 13.1-11.4 18.2-4.54 3.89-9.42 7.75-15.6 7.75v-2c-2.47 1.48-2.47 1.48-5 3 0.0722-0.699 0.144-1.4 0.219-2.12 0.139-1.37 0.139-1.37 0.281-2.76 0.139-1.36 0.139-1.36 0.281-2.74 0.249-2.32 0.249-2.32 0.219-4.38-6.23-1.04-11.7-0.833-18 0-0.33 2.31-0.66 4.62-1 7h2c-0.33 0.99-0.66 1.98-1 3-0.516-0.392-1.03-0.784-1.56-1.19-2.65-1.18-2.65-1.18-5.94 0.688-3.5 1.5-3.5 1.5-5.88 1.06-1.62-1.56-1.62-1.56-2.69-4.38 0.0625-3.19 0.0625-3.19 2.19-5.75 0.949-0.804 1.9-1.61 2.88-2.44 1.27-1.33 1.27-1.33 2.56-2.69 2.21-2.1 3.78-2.99 6.44-4.31 1.71-1.62 3.37-3.29 5-5 2.67-2.67 5.33-5.33 8-8z" fill="#131415"/>
<path transform="translate(530 46.7)" d="m0 0c1.2-0.029 2.4-0.058 3.63-0.0879 1.15-0.00838 2.3-0.0168 3.49-0.0254 1.06-0.0146 2.11-0.0292 3.2-0.0442 3.51 0.588 4.64 1.7 6.81 4.47 0.961 2.88 1.12 4.68 1.1 7.67-0.00322 0.893-0.00645 1.79-0.00977 2.71-0.0126 1.39-0.0126 1.39-0.0254 2.81-0.00451 0.94-0.00902 1.88-0.0137 2.85-0.0118 2.32-0.0282 4.64-0.0488 6.96-12.5 4.31-20.6 5.52-33 0v-26c4.34-2.17 10.1-1.27 14.9-1.31z" fill="#FDFDFD"/>
<path transform="translate(804,152)" d="m0 0h1v5c0.742 0.268 1.49 0.536 2.25 0.812 2.75 1.19 2.75 1.19 4.62 2.75 2.19 1.73 2.19 1.73 5.69 1.81 3.44 0.625 3.44 0.625 5.5 2.94 0.938 2.69 0.938 2.69 0.246 4.65-1.51 2.35-3.06 3.65-5.31 5.29-0.701 0.521-1.4 1.04-2.12 1.58-1.88 1.17-1.88 1.17-3.88 1.17-0.495 1.49-0.495 1.49-1 3-1.32 0.684-2.66 1.35-4 2-0.66 0.99-1.32 1.98-2 3-2.79 1.38-2.79 1.38-6 2-2.75-1.2-2.75-1.2-5.44-3.12-0.956-0.659-1.91-1.32-2.9-2-0.879-0.62-1.76-1.24-2.66-1.88-4.75-3.03-9.66-5.11-15-6.97-2.04-1.03-2.04-1.03-3.04-4.03 1.29-2.01 1.29-2.01 3.19-4.12 0.612-0.704 1.22-1.41 1.86-2.13 2.08-1.85 3.3-2.18 5.96-2.74 0.33-0.66 0.66-1.32 1-2 0.33 0.66 0.66 1.32 1 2 0.99-0.33 1.98-0.66 3-1v-2h5c-0.99 0.33-1.98 0.66-3 1-0.33 0.99-0.66 1.98-1 3-1.65 0.33-3.3 0.66-5 1v2h4c0.33-0.66 0.66-1.32 1-2v2h4v-2h10c0.224-2.93 0.224-2.93-1-5 1.32 0.33 2.64 0.66 4 1v-7z" fill="#161616"/>
<path transform="translate(847,194)" d="m0 0h2c1.43 2.35 2.09 3.48 1.62 6.25-0.206 0.577-0.413 1.16-0.625 1.75h2v-5c0.99 0.66 1.98 1.32 3 2v3h2v-3h2c0.66 1.32 1.32 2.64 2 4 5.45-0.345 9.4-0.797 14-4h2v2c1.32 0.66 2.64 1.32 4 2v7h4v5h2c0.33-0.66 0.66-1.32 1-2h2c0.375 2.75 0.375 2.75 0 6-7.48 6.39-15.4 7.81-25 7.48-7.18-0.603-12.8-4.1-17.7-9.23-2.41-3.95-2.54-6.4-2.56-11.1-0.0142-1.22-0.0284-2.45-0.043-3.71 0.219-3.31 0.804-5.52 2.23-8.48z" fill="#161616"/>
<path transform="translate(544 85.2)" d="m0 0c1.81 0.75 1.81 0.75 3.81 2.75 0.227 2.52 0.227 2.52 0.195 5.66-5e-3 1.01-0.00999 2.02-0.0151 3.06-0.0182 1.29-0.0364 2.57-0.0552 3.9-0.0412 4.08-0.0825 8.17-0.125 12.4h-32c-1.3-2.61-1.11-4.53-1.1-7.45 0.00322-1.08 0.00645-2.15 0.00977-3.26 0.00838-1.13 0.0168-2.26 0.0254-3.42 0.00451-1.14 0.00902-2.27 0.0137-3.44 0.0118-2.81 0.0283-5.62 0.0488-8.43 0.64 0.0105 1.28 0.0209 1.94 0.0317 2.92 0.0417 5.83 0.0676 8.75 0.0933 1.01 0.0168 2.01 0.0335 3.05 0.0508 0.976 0.00645 1.95 0.0129 2.96 0.0195 0.895 0.0105 1.79 0.0209 2.71 0.0317 3.52-0.309 6.3-2.37 9.77-1.98z" fill="#FDFDFD"/>
<path transform="translate(44,31)" d="m0 0c0.33 1.32 0.66 2.64 1 4 0.857-0.0232 1.71-0.0464 2.6-0.0703 10.5-0.166 10.5-0.166 14.4 1.13 2.84 1.16 2.84 1.16 5.16 0.441 3.83-0.681 7.39-0.143 11.2 0.371 0.73 0.0915 1.46 0.183 2.21 0.277 4.48 0.568 8.95 1.2 13.4 1.85-0.99 0.33-1.98 0.66-3 1-0.8 3.29-1.1 4.71 0 8 0.0387 1.67 0.045 3.33 0 5-1.6 0.257-3.21 0.478-4.81 0.688-1.34 0.191-1.34 0.191-2.71 0.387-3.21-0.0685-5.39-0.53-8.43-1.42-6.9-2.01-13.9-2.88-21-3.78-2.57-0.334-5.14-0.67-7.71-1.01-1.12-0.143-2.25-0.286-3.41-0.434-2.94-0.433-2.94-0.433-5.21-1.01-2.22-0.543-3.56-0.0995-5.73 0.578-3.08 0.964-4.91 0.994-8 0 0.75-1.94 0.75-1.94 2-4 2.49-0.966 4.3-1 7-1 0.99-0.33 1.98-0.66 3-1 0.66 0.33 1.32 0.66 2 1v-10c2-1 2-1 6-1z" fill="#161616"/>
<path transform="translate(503,50)" d="m0 0c0.66 0.33 1.32 0.66 2 1v102c-4.95 0.99-9.9 1.98-15 3-2.97 0.99-2.97 0.99-6 2-2.38-0.375-2.38-0.375-4-1 0.701-0.516 1.4-1.03 2.12-1.56 3.38-2.87 6.07-6.02 8.88-9.44 0.722-0.804 1.44-1.61 2.19-2.44 4.06-5.74 5.26-11.5 5.18-18.4 0.00377-0.743 0.00753-1.49 0.0114-2.25 0.00639-1.6 0.00614-3.19-1.85e-4 -4.79-0.00918-2.53 0.00118-5.06 0.0166-7.59 0.0399-7.19 0.0413-14.4 0.039-21.6-5.12e-5 -4.41 0.0191-8.82 0.0493-13.2 0.0108-2.49-0.00128-4.97-0.0138-7.46 0.00891-1.53 0.019-3.06 0.0304-4.59-0.00974-0.686-0.0195-1.37-0.0295-2.08 0.076-5.12 1.48-7.64 4.53-11.5z" fill="#FCFDFD"/>
<path transform="translate(1316 74.3)" d="m0 0c4.71 1.17 7.27 3.01 10.1 6.88 1.3 2.4 1.35 4.13 0.98 6.81 0.33 0.99 0.66 1.98 1 3 0.99 0.33 1.98 0.66 3 1-0.66 2.64-1.32 5.28-2 8h-9v2h2v2h2c-1 3-1 3-2 5h2v6c-0.578-0.33-1.15-0.66-1.75-1-2.45-1.27-2.45-1.27-6.25-1v-3h-2v-2c-2.97-0.66-5.94-1.32-9-2v-5h-3v-2c-0.99-0.33-1.98-0.66-3-1 0-2 0-2 2-4-0.66-0.33-1.32-0.66-2-1v-2c2.71-1.35 5.01-1.07 8-1v-3c-1.65-0.33-3.3-0.66-5-1v-3c0.99-0.33 1.98-0.66 3-1 0.685-1.32 1.35-2.66 2-4 2.51-3.98 4.43-4.31 8.88-3.69z" fill="#131415"/>
<path transform="translate(505,64)" d="m0 0 4 2c1.03 3.63 1.24 6.42 0 10h2v-10h1c0.33 1.65 0.66 3.3 1 5h2c0.66 1.98 1.32 3.96 2 6-0.99 0.66-1.98 1.32-3 2 0.99 0.66 1.98 1.32 3 2-0.33 0.66-0.66 1.32-1 2h-4v9h-1v-9h-2v9h-1c-0.0606 0.915-0.121 1.83-0.184 2.77-0.0838 1.19-0.168 2.38-0.254 3.6-0.0812 1.18-0.162 2.37-0.246 3.59-0.316 3.04-0.316 3.04-1.32 5.04h2c0.33-1.32 0.66-2.64 1-4 0.66 0.99 1.32 1.98 2 3h2c1.32 2.64 2.64 5.28 4 8h2c0.853 3.09 1 5.79 1 9-2.48 0.495-2.48 0.495-5 1 0.138 4.46 0.287 8.92 0.438 13.4 0.0393 1.27 0.0786 2.54 0.119 3.85 0.0628 1.82 0.0628 1.82 0.127 3.67 0.0367 1.12 0.0733 2.24 0.111 3.4 0.0313 2.67 0.0313 2.67 1.21 4.71h-4v5c-0.33-0.99-0.66-1.98-1-3h-2c-0.495 0.99-0.495 0.99-1 2-0.99-0.66-1.98-1.32-3-2-0.99 0.495-0.99 0.495-2 1 0.33-30.4 0.66-60.7 1-92z" fill="#131415"/>
<path transform="translate(726 42.9)" d="m0 0c2.76 1.24 4.59 2.98 6.83 4.98 3.02 2.06 6.07 1.91 9.67 2.14 1.67 0.313 3.34 0.637 5 1-0.33 2.64-0.66 5.28-1 8-0.99 0.33-1.98 0.66-3 1-0.433 0.897-0.433 0.897-0.875 1.81-1.7 3.31-4.33 5.58-7.89 6.78-5.95 1.08-13.7 2.03-18.9-1.47-1.46-1.35-2.91-2.72-4.31-4.12-2.32-1.04-4.65-2.04-7-3 0.145-2.28 0.145-2.28 1-5 2.51-1.84 2.51-1.84 5.69-3.5 3.58-1.94 6.79-3.69 9.75-6.5 2.56-2 2.56-2 5.06-2.12z" fill="#131415"/>
<path transform="translate(335 72.6)" d="m0 0c2.4 1.76 2.95 3.16 3.96 5.95 0.487 1.34 0.487 1.34 0.984 2.71 0.315 0.901 0.629 1.8 0.953 2.73 0.315 0.808 0.629 1.62 0.953 2.45 1.71 4.58 2.42 7.68 1.05 12.6h-2v-3c-0.99 0.495-0.99 0.495-2 1-0.495-1.48-0.495-1.48-1-3h-2v-8c-0.879 3.73-1.09 7.17-1 11h3v2h-7v2c1.32 0.33 2.64 0.66 4 1-1.98 0.99-1.98 0.99-4 2v2c0.66 0.33 1.32 0.66 2 1-0.33 0.66-0.66 1.32-1 2-9.3-2.17-9.3-2.17-12-4-0.906-2.28-0.906-2.28-1.5-4.94-0.866-3.89-0.866-3.89-3.45-6.8-1.97-1.21-3.95-2.28-6.05-3.26 0.66-0.33 1.32-0.66 2-1-1.32-0.66-2.64-1.32-4-2 0.33-0.66 0.66-1.32 1-2-0.66-0.33-1.32-0.66-2-1 0.701-0.242 1.4-0.485 2.12-0.734 6.65-2.35 12.9-4.99 19-8.48 0.7-0.384 1.4-0.768 2.12-1.16 0.624-0.358 1.25-0.717 1.89-1.09 1.86-0.539 1.86-0.539 3.96 0.0742z" fill="#151616"/>
<path transform="translate(1236,157)" d="m0 0c6.87 0.304 12.7 1.72 19.1 4.16 3.13 0.918 5.62 1.1 8.86 0.84 0.681-0.536 1.36-1.07 2.06-1.62 0.639-0.454 1.28-0.907 1.94-1.38 2.69 0.5 2.69 0.5 5 2 1.06 2.38 1.06 2.38 1 5-1.81 2.12-1.81 2.12-4 4-0.66 0.99-1.32 1.98-2 3h-2c-0.268 0.639-0.536 1.28-0.812 1.94-1.19 2.06-1.19 2.06-4.19 3.06-1.21 2-1.21 2-2 4-1.5-1.31-1.5-1.31-3-3v-3h-2c0.33 1.65 0.66 3.3 1 5-0.66 0.33-1.32 0.66-2 1v-3h-2v-3c-1.2 0.186-2.39 0.371-3.62 0.562-4.82 0.605-8.77-0.0284-13.4-1.56-0.33-0.66-0.66-1.32-1-2-0.99-0.33-1.98-0.66-3-1v-3c-0.66-0.33-1.32-0.66-2-1 0.66-1.32 1.32-2.64 2-4-0.66-0.33-1.32-0.66-2-1 0.66-1.32 1.32-2.64 2-4h3v2h2c0.33-1.32 0.66-2.64 1-4z" fill="#131415"/>
<path transform="translate(1505 135)" d="m0 0c0.977-0.0374 1.95-0.0748 2.96-0.113 2.66 0.426 2.66 0.426 4.32 2.05 1.77 3.15 1.61 5.26 1.45 8.86-0.0503 1.25-0.101 2.49-0.152 3.78-0.0683 1.3-0.137 2.59-0.207 3.93-0.0529 1.31-0.106 2.62-0.16 3.97-0.432 9.69-0.432 9.69-1.59 10.8-3.05 0.36-4.5 0.359-7.03-1.46-0.63-0.632-1.26-1.26-1.91-1.91-4.98-4.97-10.1-5.83-16.9-6.25-1.15-0.0748-2.3-0.15-3.49-0.227-1.3-0.0735-1.3-0.0735-2.63-0.148 1.43-4.78 4.29-7.64 7.81-11 0.782-0.762 0.782-0.762 1.58-1.54 1.03-1.01 2.07-2.01 3.11-3.01 2.19-2.12 4.35-4.29 6.5-6.45 1.73-1.73 4.02-1.25 6.38-1.31z" fill="#FCFCFC"/>
<path transform="translate(314,155)" d="m0 0c2.38 0.713 4.75 1.43 7.13 2.14 1.86 0.557 3.72 1.11 5.59 1.66 3.46 1.02 6.83 2.01 10.2 3.39 2.37 1.05 2.37 1.05 6.12 0.812 2.25-1.92 2.25-1.92 4-4 3.16 1.37 3.99 1.99 6 5-0.375 2.19-0.375 2.19-1 4h-2c-0.377 0.849-0.377 0.849-0.762 1.71-1.42 2.61-3.08 4.62-5.05 6.85-0.666 0.764-1.33 1.53-2.02 2.32-2.23 2.18-4.44 3.63-7.17 5.12v-3h2c-0.33-1.32-0.66-2.64-1-4h-2c-0.33 1.65-0.66 3.3-1 5-2-3-2-3-2-5-5.28-0.66-10.6-1.32-16-2v-3h-2v-2h-2c-0.276-1.6-0.52-3.21-0.75-4.81-0.139-0.893-0.278-1.79-0.422-2.71 0.0567-0.819 0.113-1.64 0.172-2.48 1.98-1.7 1.98-1.7 4-3v-2z" fill="#131415"/>
<path transform="translate(641,101)" d="m0 0c6.43 0.486 6.43 0.486 8.71 2.55 1.81 3.43 1.72 6.65 1.69 10.4 0.00287 0.766 0.00574 1.53 0.0087 2.32 0.00204 1.62-0.00347 3.23-0.016 4.85-0.0161 2.48-1.17e-4 4.95 0.019 7.43-0.00198 1.57-0.00582 3.14-0.0117 4.71 0.00911 1.11 0.00911 1.11 0.0184 2.25-0.0287 2.08-0.0287 2.08-0.417 5.46-0.99 0.66-1.98 1.32-3 2v-2.94c-0.8-5.67-5.19-9.12-9-13.1-1.26-1.41-2.51-2.82-3.75-4.25-0.57-0.651-1.14-1.3-1.73-1.97-1.25-1.46-2.46-2.96-3.65-4.46-1.91-2.45-1.91-2.45-4.56-4.94-2.31-2.38-2.31-2.38-3.31-5.38 1.04-0.133 2.07-0.266 3.14-0.402 1.37-0.178 2.74-0.357 4.11-0.535 0.682-0.087 1.36-0.174 2.07-0.264 3.28-0.43 6.5-0.887 9.68-1.8v-2z" fill="#FDFDFD"/>
<path transform="translate(1370 71.5)" d="m0 0c4.71 2.13 7.53 5.18 10.3 9.5 0.938 3.5 0.938 3.5 1 6h-2v4c-0.922 0.0735-0.922 0.0735-1.86 0.148-0.808 0.0748-1.62 0.15-2.45 0.227-0.801 0.0696-1.6 0.139-2.43 0.211-2.53 0.31-2.53 0.31-5.26 2.41-1.97 0.273-1.97 0.273-4.06 0.375-3.97 0.154-3.97 0.154-5.44 2.69-0.165 0.639-0.33 1.28-0.5 1.94v-2h-2v3c-1.27-0.433-1.27-0.433-2.56-0.875-3.46-1.13-6.93-2.14-10.4-3.12 1.83-6.63 5.65-9.59 11-13.7 1.94-1.5 3.84-3.05 5.68-4.68 6.23-5.47 6.23-5.47 11-6.11z" fill="#131415"/>
<path transform="translate(171,61)" d="m0 0c0.33 0.66 0.66 1.32 1 2h3c0.0103 0.945 0.0206 1.89 0.0312 2.86 0.098 8.93 0.201 17.9 0.308 26.8 0.055 4.59 0.108 9.18 0.158 13.8 0.048 4.44 0.1 8.87 0.156 13.3 0.0203 1.69 0.039 3.37 0.0561 5.06 0.117 12.1 0.117 12.1 1.29 24.2 0.495-0.495 0.495-0.495 1-1-0.328-1.33-0.662-2.67-1-4-0.0655-1.58-0.0858-3.17-0.0625-4.75 0.00902-0.799 0.018-1.6 0.0273-2.42 0.0174-0.905 0.0174-0.905 0.0352-1.83h1c0.124 0.742 0.248 1.49 0.375 2.25 0.594 2.61 1.42 4.38 2.62 6.75 2.74 6.31 4.81 11.2 3 18h-4v5c-3.47 0.495-3.47 0.495-7 1 0.33-1.32 0.66-2.64 1-4 0.66 0.66 1.32 1.32 2 2v-4c-1.49 0.495-1.49 0.495-3 1-1.63-2.87-2.25-4.91-2.24-8.2-0.00275-0.83-0.0055-1.66-0.00833-2.52 0.00719-0.902 0.0144-1.8 0.0218-2.73-2.92e-4 -0.956-5.84e-4 -1.91-8.85e-4 -2.9 0.00139-3.16 0.017-6.32 0.0326-9.48 0.00373-2.19 0.00658-4.38 0.00858-6.57 0.00764-5.77 0.0273-11.5 0.0494-17.3 0.0205-5.89 0.0296-11.8 0.0397-17.7 0.0214-11.5 0.0556-23.1 0.0977-34.6z" fill="#131415"/>
<path transform="translate(284,86)" d="m0 0c5.94 0.99 5.94 0.99 12 2-1.98 0.99-1.98 0.99-4 2 0.0116 1.13 0.0232 2.27 0.0352 3.44 0.00939 1.52 0.0185 3.04 0.0273 4.56 0.00838 0.744 0.0168 1.49 0.0254 2.25 0.0218 5.01-0.372 9.79-1.09 14.7h2c-0.0105-0.62-0.0209-1.24-0.0317-1.88-0.0416-2.81-0.0676-5.62-0.0933-8.43-0.0168-0.976-0.0335-1.95-0.0508-2.96-0.00645-0.938-0.0129-1.88-0.0195-2.84-0.0105-0.864-0.0209-1.73-0.0317-2.62 0.227-2.27 0.227-2.27 2.23-5.27 0.66 0.33 1.32 0.66 2 1v4c0.0348 0.807 0.0696 1.61 0.105 2.45 0.144 4.7 0.0463 8.67-1.54 13.1-1.65 4.86-2.03 9.54-2.31 14.6-0.0666 1.14-0.0666 1.14-0.135 2.3-0.207 4.64 0.145 8.91 0.885 13.5-0.0206 1.24-0.0412 2.47-0.0625 3.75-0.226 3.4-0.226 3.4 2.06 6.25 0.361 4.78-0.0554 8.6-2 13-3 2-3 2-6 2v-3c-0.66-0.33-1.32-0.66-2-1 0.00666-0.809 0.0133-1.62 0.0202-2.45 0.0603-7.65 0.106-15.3 0.135-22.9 0.0156-3.93 0.0368-7.86 0.0709-11.8 0.0328-3.8 0.0506-7.6 0.0583-11.4 0.00551-1.44 0.0163-2.89 0.0326-4.33 0.0829-7.67-0.204-14-3.32-21.1 0.33-0.99 0.66-1.98 1-3z" fill="#131415"/>
<path transform="translate(1567,158)" d="m0 0c4.39 2.61 7.4 5.36 10.6 9.33 1.47 1.84 1.47 1.84 3.83 3.86 0.516 0.598 1.03 1.2 1.56 1.81-0.257 2.49-0.719 3.7-2.45 5.53-0.593 0.465-1.19 0.931-1.8 1.41-2.37 1.9-4.34 3.7-6.44 5.94-2.31 2.12-2.31 2.12-6.31 2.12-5.58-3.38-10.1-7.83-14-13 1.57-3.82 4-6.2 6.94-9.06 0.875-0.857 1.75-1.71 2.65-2.6 0.795-0.772 1.59-1.54 2.41-2.34 1-0.998 2-2 3-3z" fill="#131415"/>
<path transform="translate(1144,90)" d="m0 0h21v41c-1.32-0.33-2.64-0.66-4-1-1.5-2.65-2.75-5.23-4-8-1.14-2.3-2.28-4.59-3.44-6.88-0.606-1.22-1.21-2.44-1.82-3.66-1.07-2.12-2.15-4.22-3.27-6.31-0.445-0.835-0.889-1.67-1.35-2.53-0.389-0.709-0.779-1.42-1.18-2.15-0.945-2.48-0.945-2.48-1.95-10.5z" fill="#FDFDFD"/>
<path transform="translate(1357,108)" d="m0 0c0.99 0.33 1.98 0.66 3 1-0.0116 0.597-0.0232 1.19-0.0352 1.81-0.0625 6.01 0.104 12 0.41 18 0.0463 1.07 0.0463 1.07 0.0935 2.17 0.253 4.53 1.05 7.58 2.53 12-0.33-4.62-0.66-9.24-1-14h2c0.678 2.18 1.34 4.37 2 6.56 0.371 1.22 0.743 2.44 1.12 3.69 0.87 3.73 1.03 6.94 0.875 10.7h3v2h-2v3h2v2h-2c0.0232 0.626 0.0464 1.25 0.0703 1.9 0.0271 1.23 0.0271 1.23 0.0547 2.48 0.0232 0.812 0.0464 1.62 0.0703 2.46-0.195 2.16-0.195 2.16-2.2 4.16-1.32-0.66-2.64-1.32-4-2v2h-2v-2c-1.98 0.495-1.98 0.495-4 1-0.33-1.98-0.66-3.96-1-6h-1v-48h1c0.33-1.65 0.66-3.3 1-5z" fill="#131415"/>
<path transform="translate(1260,81)" d="m0 0c1.72 7.09 2.25 13.7 2 21-0.66 0.33-1.32 0.66-2 1-0.99-1.98-1.98-3.96-3-6v5c-1.98 0.33-3.96 0.66-6 1v-2c-1.98 0.99-1.98 0.99-4 2v-3h-2c0.438 4.96 2.88 7.27 6 11 1.38 3.25 1.38 3.25 2 6-0.33 0.66-0.66 1.32-1 2 0.99-0.495 0.99-0.495 2-1v-4c0.99 0.33 1.98 0.66 3 1 0.125 5.75 0.125 5.75-1 8h-2c-0.33-0.66-0.66-1.32-1-2-1.32 1.32-2.64 2.64-4 4-0.99-0.66-1.98-1.32-3-2h-2c-0.495-1.48-0.495-1.48-1-3 1.48-0.495 1.48-0.495 3-1v-2h2c-0.445-0.629-0.889-1.26-1.35-1.91-5.19-7.85-5.19-7.85-4.28-12.5 0.206-1.2 0.412-2.39 0.625-3.62-1.81-2.4-1.81-2.4-4-4v-2h5c-0.454-0.454-0.908-0.907-1.38-1.38l-3.62-3.62h5c0.33-2.31 0.66-4.62 1-7 1.56-0.197 3.12-0.382 4.69-0.562 0.87-0.104 1.74-0.209 2.64-0.316 2.75-0.124 5.01 0.231 7.68 0.879z" fill="#131415"/>
<path transform="translate(1492,95)" d="m0 0c4.21-0.511 6.44 0.714 9.96 2.93 3.13 1.65 6.47 2.37 9.9 3.17 2.14 0.906 2.14 0.906 3.43 3 0.233 0.629 0.467 1.26 0.707 1.91-1.38 1.5-1.38 1.5-3 3h-2c-0.268 0.639-0.536 1.28-0.812 1.94-1.19 2.06-1.19 2.06-4.19 3.06-0.33 0.66-0.66 1.32-1 2-0.33 0.66-0.66 1.32-1 2-0.99 0.33-1.98 0.66-3 1-0.33 0.66-0.66 1.32-1 2-0.33 0.66-0.66 1.32-1 2-0.99 0.33-1.98 0.66-3 1v2c-1.65 0.33-3.3 0.66-5 1-2.16-4.32-1.18-10.1-1.19-14.9-0.0122-1.2-0.0245-2.4-0.0371-3.63-0.00193-1.15-0.00387-2.3-0.00586-3.49-0.00411-1.06-0.00822-2.11-0.0125-3.2 0.242-2.79 0.802-4.43 2.24-6.81z" fill="#FDFDFD"/>
<path transform="translate(472,123)" d="m0 0h1v6c1.05-0.278 1.05-0.278 2.12-0.562 3.21-0.489 5.71-0.0998 8.88 0.562 0.33 1.65 0.66 3.3 1 5h3v3c-0.99 0.495-0.99 0.495-2 1 0.66 0.33 1.32 0.66 2 1v6h-2v3h2c-0.253 3.41-1.26 4.25-3.81 6.69-3.35 2.43-5.16 3.31-9.19 3.31-0.33 0.99-0.66 1.98-1 3-1.65-0.33-3.3-0.66-5-1-0.122-8.4 0.157-16.6 1-25h1c0.33-3.96 0.66-7.92 1-12z" fill="#131415"/>
<path transform="translate(1075,127)" d="m0 0c1.32 1.32 2.64 2.64 4 4h-2v2h2c0.33 0.99 0.66 1.98 1 3 0.66-1.32 1.32-2.64 2-4 0.66 6.6 1.32 13.2 2 20 0.99-0.33 1.98-0.66 3-1 12.1-0.88 22.1 3.42 32 10v-2c1.32-0.33 2.64-0.66 4-1 1.56 1.69 1.56 1.69 3 4-0.191 3.82-1.34 6.27-4 9-2.52 0.172-2.52 0.172-5.38-0.25-3.59-0.495-7-0.829-10.6-0.75v-4h-2c0.309-0.928 0.309-0.928 0.625-1.88 0.124-0.701 0.247-1.4 0.375-2.12-0.66-0.66-1.32-1.32-2-2l2-1c0.66 0.33 1.32 0.66 2 1-0.854-2.21-0.854-2.21-3.25-3.12-2.66-0.998-2.66-0.998-5.19-0.875-2.56 0-2.56 0-5.62-1.06-3.02-0.963-4.05-0.969-6.94 0.0625h-2v4c-1.98-0.66-3.96-1.32-6-2 0.33-0.66 0.66-1.32 1-2h2c-0.33-0.33-0.66-0.66-1-1h-4c-1.33-2.66-1.11-4.69-1.1-7.66 0.00322-1.12 0.00645-2.24 0.00977-3.4 0.00838-1.18 0.0168-2.35 0.0254-3.56 0.00451-1.18 0.00902-2.37 0.0137-3.59 0.0118-2.93 0.0283-5.86 0.0488-8.79z" fill="#131415"/>
<path transform="translate(1472,146)" d="m0 0c0.66 0.66 1.32 1.32 2 2 1.32-0.66 2.64-1.32 4-2 0.33 1.65 0.66 3.3 1 5 0.99-0.33 1.98-0.66 3-1-0.66 1.98-1.32 3.96-2 6h-2v4 3h-6c1.98 0.66 3.96 1.32 6 2v3c-2.97 0.33-5.94 0.66-9 1v3c-3.96 0.495-3.96 0.495-8 1 0.33 1.65 0.66 3.3 1 5-1.48 0.495-1.48 0.495-3 1h3c-0.607 3.15-1.64 5.19-3.56 7.75-0.455 0.614-0.91 1.23-1.38 1.86-0.524 0.688-0.524 0.688-1.06 1.39-2.31-0.33-4.62-0.66-7-1 1.45-8.04 5.22-14.9 9-22 0.422-0.799 0.843-1.6 1.28-2.42 2.43-4.43 2.43-4.43 4.72-5.58 1.01-1.66 2.01-3.33 3-5 0.701-0.866 1.4-1.73 2.12-2.62 2.04-2.31 2.04-2.31 2.88-5.38z" fill="#131415"/>
<path transform="translate(845,113)" d="m0 0c2.19 4.39 2.34 7.72 2.41 12.5 0.0194 0.816 0.0387 1.63 0.0587 2.47 0.0596 2.6 0.106 5.2 0.152 7.79 0.0382 1.76 0.0772 3.53 0.117 5.29 0.0959 4.32 0.18 8.64 0.258 13h2v-4c0.99 0.33 1.98 0.66 3 1v3h2c4 6.94 4.8 16.3 3 24-0.928-0.278-0.928-0.278-1.88-0.562-2.17-0.674-2.17-0.674-4.12 0.562-4.01-1.16-6.54-2.62-9-6-0.565-3.41-0.465-6.78-0.391-10.2 0.00566-0.993 0.0113-1.99 0.0172-3.01 0.0224-3.17 0.0726-6.34 0.123-9.51 0.0201-2.15 0.0383-4.3 0.0547-6.45 0.0441-5.27 0.111-10.5 0.195-15.8h2v-14z" fill="#131415"/>
<path transform="translate(657,89)" d="m0 0c1.07 0.393 1.07 0.393 2.16 0.793 1.84 1.21 1.84 1.21 2.45 3.37 0.0464 0.812 0.0928 1.62 0.141 2.46 0.0567 0.817 0.113 1.63 0.172 2.48 0.0258 0.626 0.0516 1.25 0.0781 1.9 2.97 0.495 2.97 0.495 6 1-0.33 0.99-0.66 1.98-1 3h-4c-0.33 1.32-0.66 2.64-1 4-0.33-0.99-0.66-1.98-1-3-1.67-0.0427-3.33-0.0406-5 0-3.41 3.41-2.09 13.1-2.1 17.7 0.00286 2.8 0.0182 5.6 0.0352 8.4 0.00503 1.45 0.00959 2.9 0.0137 4.36 0.0109 3.53 0.0281 7.05 0.0488 10.6-2.99-4.48-3.15-7.44-3.18-12.7-0.0232-1.57-0.0473-3.14-0.0723-4.71-0.0351-2.48-0.0645-4.95-0.0779-7.43-0.0155-2.39-0.0557-4.78-0.0999-7.17 0.00191-0.739 0.00382-1.48 0.00578-2.24-0.082-3.45-0.316-5.39-2.43-8.17-2.16-1.73-2.16-1.73-5.15-2.56-0.125-3.38-0.125-3.38 0-7 0.66-0.66 1.32-1.32 2-2-0.99-0.66-1.98-1.32-3-2 5.88-2.68 8.76-3.52 15-1z" fill="#161616"/>
<path transform="translate(124,83)" d="m0 0h1c0.33 11.9 0.66 23.8 1 36h1c0.33-8.25 0.66-16.5 1-25h1c0.33 16.2 0.66 32.3 1 49 4.04-4 4.04-4 7.56-8.25 2.47-2.79 3.01-3.14 6.44-3.75-0.285 2.04-0.578 4.08-0.875 6.12-0.244 1.71-0.244 1.71-0.492 3.45-0.607 3.29-1.5 6.29-2.63 9.43-0.66-0.33-1.32-0.66-2-1v-2c-1.6-0.0812-3.21-0.139-4.81-0.188-0.893-0.0348-1.79-0.0696-2.71-0.105-2.94 0.347-3.59 1.12-5.48 3.29h-2v2h-2v-17h1c0.979-17.3 1.5-34.7 2-52z" fill="#151515"/>
<path transform="translate(503,50)" d="m0 0c0.66 0.33 1.32 0.66 2 1-0.245 0.744-0.245 0.744-0.495 1.5-0.704 3.48-0.619 6.91-0.587 10.4 0.00307 0.797 0.00613 1.59 0.00929 2.42 0.00714 1.73 0.0165 3.46 0.0279 5.18 0.0174 2.73 0.0277 5.46 0.0359 8.19 0.0245 7.76 0.0601 15.5 0.105 23.3 0.0267 4.75 0.0438 9.5 0.0549 14.3 0.00622 1.81 0.0162 3.63 0.0301 5.44 0.0191 2.53 0.0261 5.06 0.0303 7.58 0.00876 0.753 0.0175 1.51 0.0266 2.28-0.00984 5.18-0.00984 5.18-2.24 7.41-0.697 1.32-1.37 2.65-2 4-1.21-2.33-2.17-4.5-3-7 0.33-0.99 0.66-1.98 1-3 0.0991-2.45 0.144-4.87 0.142-7.31 0.00347-0.742 0.00695-1.48 0.0105-2.25 0.00735-1.61 0.0127-3.22 0.0163-4.83 0.00717-2.55 0.0228-5.1 0.0413-7.65 0.0524-7.26 0.1-14.5 0.116-21.8 0.0101-4.44 0.0395-8.88 0.0813-13.3 0.0123-1.69 0.0174-3.38 0.0152-5.07-0.00236-2.37 0.0199-4.73 0.0475-7.1-0.0066-0.694-0.0132-1.39-0.02-2.1 0.0983-5.14 1.49-7.68 4.55-11.6z" fill="#FBFDFD"/>
<path transform="translate(910,188)" d="m0 0c-3.55 3.34-6.49 3.4-11.2 3.69-8.01 0.711-14.1 3.47-21 7.34-5.05 2.79-10.8 5.84-16.7 4.97-0.66-0.66-1.32-1.32-2-2 0.138-3.24 0.234-5.26 2.63-7.57 8.53-5.16 20.7-5.95 30.4-7.31 0.975-0.144 1.95-0.289 2.95-0.438 5.62-0.728 9.67-0.707 15 1.31z" fill="#FDFDFD"/>
<path transform="translate(881,90)" d="m0 0h5c-0.474 0.392-0.949 0.784-1.44 1.19-1.91 2.22-2.18 3.95-2.56 6.81-0.99 0.33-1.98 0.66-3 1v2c-1.98 0.99-3.96 1.98-6 3 0.66 0.33 1.32 0.66 2 1v3c-1.65 0.66-3.3 1.32-5 2-0.66-1.32-1.32-2.64-2-4-0.66 2.31-1.32 4.62-2 7h-1v-5h-2c-0.66 1.32-1.32 2.64-2 4-0.33-1.32-0.66-2.64-1-4h-2v-9h-7v-8c2.33-0.0424 4.67-0.0409 7 0 1 1 1 1 1.06 4.06-0.0206 0.969-0.0412 1.94-0.0625 2.94h4v-4h-3v-3c1.32 0.33 2.64 0.66 4 1v6c3.47 0.75 3.47 0.75 7 1 0.66-0.66 1.32-1.32 2-2 0.66 0.33 1.32 0.66 2 1-0.33-0.99-0.66-1.98-1-3 4.75-3 4.75-3 7-3v-2z" fill="#131415"/>
<path transform="translate(481,163)" d="m0 0v4c0.66 0.33 1.32 0.66 2 1-0.99 0.33-1.98 0.66-3 1v3h-2v3c-1.18 0.124-1.18 0.124-2.38 0.25-0.866 0.248-1.73 0.495-2.62 0.75-0.268 0.619-0.536 1.24-0.812 1.88-1.7 3.04-3.87 3.45-7.08 4.54-2.11 0.586-2.11 0.586-5.54 1.15-0.846 0.144-1.69 0.289-2.56 0.438-0.33 0.66-0.66 1.32-1 2 0-5.32 0.831-8.33 4.44-12.3 0.617-0.697 1.23-1.39 1.87-2.11 1.69-1.57 1.69-1.57 3.69-1.57 0.33-0.99 0.66-1.98 1-3 4.82-5.17 7.17-5.53 14-4z" fill="#141415"/>
<path transform="translate(675,169)" d="m0 0c3.88 0.875 3.88 0.875 5 2 0.0723 1.85 0.0838 3.71 0.0625 5.56-0.00902 1.01-0.018 2.02-0.0273 3.07-0.0116 0.782-0.0232 1.56-0.0352 2.37 0.66 0.33 1.32 0.66 2 1h-2c-0.144 0.639-0.289 1.28-0.438 1.94-0.562 2.06-0.562 2.06-1.56 3.06-9.27 1.03-15.9-2.33-23-8v-2h2c0.33-1.65 0.66-3.3 1-5 0.66 0.66 1.32 1.32 2 2 0.742-0.309 1.49-0.619 2.25-0.938 2.26-0.872 4.4-1.54 6.75-2.06v2h6v6c0.66-0.33 1.32-0.66 2-1v-7c-0.66-0.33-1.32-0.66-2-1v-2z" fill="#161616"/>
<path transform="translate(721,98)" d="m0 0h5c0.33 0.99 0.66 1.98 1 3 1.11 0.186 1.11 0.186 2.25 0.375 2.62 0.596 4.53 1.12 6.75 2.62 1.34 4.09 1.13 8.23 1.1 12.5-0.00141 0.816-0.00283 1.63-0.00429 2.47-0.00559 2.6-0.0181 5.2-0.0309 7.79-0.00502 1.76-0.00958 3.53-0.0137 5.29-0.011 4.32-0.0283 8.64-0.0488 13-4.17-4.17-3.29-11.7-3.56-17.4-0.0432-0.831-0.0864-1.66-0.131-2.52-0.105-2.04-0.206-4.07-0.307-6.11-1.32-0.33-2.64-0.66-4-1-0.33-2.64-0.66-5.28-1-8h-4c-0.33-1.65-0.66-3.3-1-5h-4v-2c1.32-0.33 2.64-0.66 4-1v-2h-2v-2z" fill="#151515"/>
<path transform="translate(1417 74.1)" d="m0 0c2.41 1.24 2.97 2.44 4.09 4.88 0.335 0.71 0.67 1.42 1.02 2.15 0.734 1.91 0.734 1.91 0.734 3.91h-8v2c1.42-0.0619 1.42-0.0619 2.88-0.125 3.12 0.125 3.12 0.125 5.12 2.12-2.64 0.33-5.28 0.66-8 1-0.33 0.99-0.66 1.98-1 3v-2h-4c-0.33 0.66-0.66 1.32-1 2v-2h-7c3-2 3-2 6-3 0.33-0.66 0.66-1.32 1-2h-7v2h-2c-0.33-0.99-0.66-1.98-1-3 1.34-0.88 2.68-1.76 4.02-2.64 1.51-1.04 3-2.12 4.47-3.22 0.871-0.645 1.74-1.29 2.64-1.95 0.828-0.625 1.66-1.25 2.51-1.89 2.37-1.29 2.37-1.29 4.53-1.24z" fill="#131415"/>
<path transform="translate(1234,94)" d="m0 0h3c0.219 0.522 0.438 1.04 0.664 1.58 2.38 5.53 5.11 10.8 8.07 16 1.27 2.38 1.27 2.38 2.27 5.38h-2v2c-3.3 1.65-6.6 3.3-10 5-1.86-1.86-1.24-4.95-1.32-7.44-0.0419-1.31-0.0838-2.61-0.127-3.96-0.0398-1.39-0.0795-2.78-0.119-4.17-0.0432-1.39-0.0868-2.79-0.131-4.18-0.106-3.42-0.209-6.84-0.307-10.3z" fill="#FBFCFC"/>
<path transform="translate(314,95)" d="m0 0h2v2h2c0.242 0.641 0.485 1.28 0.734 1.94 1.61 4.16 3.18 8.1 5.58 11.9 1.69 3.19 1.69 3.19 1.94 5.81-1.97 3.74-5.38 5.79-9.25 7.38-0.99-0.33-1.98-0.66-3-1-0.196-4.48-0.38-8.96-0.562-13.4-0.0561-1.28-0.112-2.56-0.17-3.88-0.0483-1.21-0.0967-2.43-0.146-3.68-0.0471-1.13-0.0943-2.25-0.143-3.41 0.0217-2.59 0.0217-2.59 1.02-3.59z" fill="#FCFCFC"/>
<path transform="translate(1094,19)" d="m0 0c9.24 2.89 15.7 10.2 21 18v2h2c-0.33 1.32-0.66 2.64-1 4-3-1-3-1-4-2-0.846-0.474-1.69-0.949-2.56-1.44-0.804-0.516-1.61-1.03-2.44-1.56v-2c-0.949-0.103-1.9-0.206-2.88-0.312-3.12-0.688-3.12-0.688-5.12-3.69-0.99-0.33-1.98-0.66-3-1-0.33-0.99-0.66-1.98-1-3-0.99-0.66-1.98-1.32-3-2 0.33-0.33 0.66-0.66 1-1-0.66-0.33-1.32-0.66-2-1 1.88-3.88 1.88-3.88 3-5z" fill="#131415"/>
<path transform="translate(1168,50)" d="m0 0c0.66 0.99 1.32 1.98 2 3 0.66-0.66 1.32-1.32 2-2 2.07 4.24 2.28 8.06 2.19 12.7-0.00967 1.05-0.00967 1.05-0.0195 2.13-0.0796 5.43-0.443 10.8-1.17 16.2-4.75 1.12-4.75 1.12-7 0v-2c-0.66-0.33-1.32-0.66-2-1 0.33-7.59 0.66-15.2 1-23 0.66 1.32 1.32 2.64 2 4 0.33-3.3 0.66-6.6 1-10z" fill="#131415"/>
<path transform="translate(469,98)" d="m0 0c0.33 0.66 0.66 1.32 1 2h4c0.33-0.66 0.66-1.32 1-2 0.33 2.31 0.66 4.62 1 7h2v2h4c0.33-0.66 0.66-1.32 1-2 1.35 8.95 1.35 8.95 0 13-2.57-2.57-2.54-4.48-3-8-1.13 1.83-1.13 1.83-2 4 0.33 0.99 0.66 1.98 1 3-0.66 0.99-1.32 1.98-2 3h-3v2h-2c-0.0833-4.83 0.0474-9.24 1-14-4.45 0.495-4.45 0.495-9 1-0.33-1.32-0.66-2.64-1-4h6v-2h-6v-3h6v-2z" fill="#131415"/>
<path transform="translate(1300,85)" d="m0 0c2.31 0.66 4.62 1.32 7 2v3c-2.64 0.33-5.28 0.66-8 1v2c1.32 0.66 2.64 1.32 4 2-1.32 0.33-2.64 0.66-4 1 0.743 0.681 0.743 0.681 1.5 1.38 1.5 1.62 1.5 1.62 1.5 3.62h3v5h7c0.33 0.99 0.66 1.98 1 3h-2c0.33 4.95 0.66 9.9 1 15h2v5c-1.48 0.495-1.48 0.495-3 1v-6h-2c-0.098-1.04-0.196-2.07-0.297-3.14-0.15-1.37-0.301-2.74-0.453-4.11-0.0619-0.682-0.124-1.36-0.188-2.07-0.536-4.6-1.51-6.75-5.06-9.68-0.557-0.846-1.11-1.69-1.69-2.56-3.24-3.42-6.84-4.26-11.3-5.44 2.16-3.98 4.63-6.97 8-10h2v-2z" fill="#161616"/>
<path transform="translate(94,56)" d="m0 0h6v25h-1c-0.289-0.949-0.578-1.9-0.875-2.88-0.893-3.18-0.893-3.18-3.12-5.12-0.33 0.99-0.66 1.98-1 3-3.94-3.32-3.94-3.32-4.25-6.75 0.0825-0.743 0.165-1.48 0.25-2.25-2.47-0.99-2.47-0.99-5-2 0.246-1.86 0.246-1.86 1-4 1.85-1.27 1.85-1.27 4.06-2.25 0.733-0.335 1.47-0.67 2.22-1.02 0.566-0.242 1.13-0.485 1.71-0.734v-1z" fill="#131415"/>
<path transform="translate(197,157)" d="m0 0c6.18 2.19 11.4 4.2 16 9 0.875 2.81 0.875 2.81 1 5-1.12 1.01-2.25 2-3.38 3-0.626 0.557-1.25 1.11-1.9 1.69-1.73 1.31-1.73 1.31-3.73 1.31-0.33-1.32-0.66-2.64-1-4-1.11-0.289-2.23-0.577-3.38-0.875-3.62-1.12-3.62-1.12-5.62-3.12 0.66-0.66 1.32-1.32 2-2-0.66-0.99-1.32-1.98-2-3 0.99-0.33 1.98-0.66 3-1 0.66 1.32 1.32 2.64 2 4h2c-0.959-1.08-0.959-1.08-1.94-2.19-2.09-2.84-2.52-4.42-3.06-7.81z" fill="#131415"/>
<path transform="translate(1216,143)" d="m0 0c2.89 3.27 4.79 5.57 5 10-0.863 4.17-1.54 7.33-5 10-1.32-0.66-2.64-1.32-4-2-0.33 0.66-0.66 1.32-1 2v-2h-2c-1.5-3-1.09-5.79-1.06-9.12 0.00902-1.28 0.018-2.56 0.0273-3.88 0.0116-0.987 0.0232-1.97 0.0352-2.99h3v2h-2v2c0.66-0.33 1.32-0.66 2-1 0.33-0.99 0.66-1.98 1-3h4v-2z" fill="#131415"/>
<path transform="translate(1466,167)" d="m0 0c0.33 0.99 0.66 1.98 1 3-1.98 0.99-3.96 1.98-6 3 0.33 1.65 0.66 3.3 1 5-0.99 0.33-1.98 0.66-3 1h3c-0.607 3.15-1.64 5.19-3.56 7.75-0.455 0.614-0.91 1.23-1.38 1.86-0.349 0.459-0.699 0.918-1.06 1.39-2.31-0.33-4.62-0.66-7-1 1.02-5.22 2.65-10 4.69-14.9 0.686-1.68 0.686-1.68 1.39-3.4 1.93-2.66 1.93-2.66 5.51-3.54 1.81-0.064 3.61-0.121 5.42-0.121z" fill="#141516"/>
<path transform="translate(509,83)" d="m0 0c2.97 0.33 5.94 0.66 9 1-0.66 0.66-1.32 1.32-2 2-0.371 2.52-0.371 2.52-0.414 5.45-0.058 1.61-0.058 1.61-0.117 3.26-0.0309 1.13-0.0619 2.26-0.0938 3.42-0.058 1.7-0.058 1.7-0.117 3.44-0.0945 2.81-0.18 5.62-0.258 8.43-0.66-1.32-1.32-2.64-2-4h-2v7h-1c-0.33-2.31-0.66-4.62-1-7-0.99 0.33-1.98 0.66-3 1 0.33-5.61 0.66-11.2 1-17h1c0.33-2.31 0.66-4.62 1-7z" fill="#151515"/>
<path transform="translate(909,212)" d="m0 0c0.66 1.32 1.32 2.64 2 4-0.495 0.392-0.99 0.784-1.5 1.19-1.96 2.36-1.74 3.83-1.5 6.81h2c0.33 0.99 0.66 1.98 1 3-9.53 0.374-9.53 0.374-14-2-1-1-1-1-1.25-4.31 0.258-3.81 0.553-5.09 3.25-7.69 3.47-1.16 6.36-1.07 10-1z" fill="#151616"/>
<path transform="translate(934,83)" d="m0 0c-0.0294 6.48-1.2 10.1-5.72 14.8-0.422 0.401-0.843 0.802-1.28 1.21-0.99-0.99-1.98-1.98-3-3-0.99 0.66-1.98 1.32-3 2v-4h-2v-7c2.48 0.99 2.48 0.99 5 2v-2c-0.66-0.33-1.32-0.66-2-1-0.33-0.99-0.66-1.98-1-3 1.79-0.195 3.58-0.381 5.38-0.562 1.5-0.157 1.5-0.157 3.02-0.316 2.6-0.121 2.6-0.121 4.6 0.879z" fill="#131415"/>
<path transform="translate(1055,103)" d="m0 0c0.33 0.99 0.66 1.98 1 3h5c0.33 0.66 0.66 1.32 1 2 0.33-0.66 0.66-1.32 1-2h13v1h-7v2l-2 1c2.97 0.33 5.94 0.66 9 1l-2 1v2c-2.5 1.63-2.5 1.63-5 3v-2c-1.65 0.66-3.3 1.32-5 2v-2c-1.26 0.0619-2.52 0.124-3.81 0.188-2.54-0.0225-3.95-0.0717-6.25-1.19-1.6-3.41-0.642-6.36 0.0625-10 0.33-0.33 0.66-0.66 1-1z" fill="#131415"/>
<path transform="translate(1506,91)" d="m0 0c3.15 0.7 6.07 1.65 9 3 0.33 0.66 0.66 1.32 1 2 0.99 0.33 1.98 0.66 3 1 0.33 0.66 0.66 1.32 1 2 0.99 0.66 1.98 1.32 3 2-3.88 3-3.88 3-5 3-3.56-0.824-7.06-1.85-10.6-2.88-1.14-0.327-2.27-0.655-3.44-0.992-2.81-1.06-4.14-1.83-6-4.13 1.14-0.124 1.14-0.124 2.31-0.25 3.21-0.896 3.98-1.97 5.69-4.75z" fill="#191919"/>
<path transform="translate(1218,100)" d="m0 0h1v5l2.25-0.562c2.7-0.43 4.2-0.289 6.75 0.562v6h2c-0.278 0.959-0.278 0.959-0.562 1.94-0.144 0.681-0.289 1.36-0.438 2.06 0.33 0.33 0.66 0.66 1 1-0.438 2.06-0.438 2.06-1 4v-3h-4c-0.33 0.99-0.66 1.98-1 3v-3h-5c-0.33 0.66-0.66 1.32-1 2v-19z" fill="#131415"/>
<path transform="translate(225,214)" d="m0 0c0.33 0.66 0.66 1.32 1 2-0.99 0.99-1.98 1.98-3 3 0.99-0.33 1.98-0.66 3-1 2.02 0.121 2.02 0.121 4.25 0.438 3.97 0.506 7.76 0.647 11.8 0.562-3.27 4.29-5.32 6.64-10.8 7.81-4.55 0.487-7.26-0.658-11.2-2.81l-2-2c0-1.88 0-1.88 1-4 3.06-2.25 3.06-2.25 6-4z" fill="#161616"/>
<path transform="translate(1488,100)" d="m0 0c0.99 0.66 1.98 1.32 3 2 0.265 2.31 0.265 2.31 0.109 5.16-0.0503 1.02-0.101 2.04-0.152 3.1-0.0683 1.07-0.137 2.14-0.207 3.25-0.0529 1.07-0.106 2.14-0.16 3.25-0.43 7.93-0.43 7.93-1.59 10.3h-5c1.32-0.33 2.64-0.66 4-1v-2h-4v-3h4v-2c-2.64-0.33-5.28-0.66-8-1v-5h2c-0.33-1.32-0.66-2.64-1-4h2v2h2v2h2c-0.186-0.495-0.371-0.99-0.562-1.5-0.645-3.68-0.0424-6.81 0.562-10.5 0.33-0.33 0.66-0.66 1-1z" fill="#151515"/>
<path transform="translate(855,185)" d="m0 0c0.33 0.66 0.66 1.32 1 2 0.66 0.33 1.32 0.66 2 1h-2c0.33 0.66 0.66 1.32 1 2 0.66-0.33 1.32-0.66 2-1 0.66 0.66 1.32 1.32 2 2-0.33 0.33-0.66 0.66-1 1 0.66 0.33 1.32 0.66 2 1-0.66 1.98-1.32 3.96-2 6h-3v3h-2c-0.66-1.32-1.32-2.64-2-4-0.33 1.32-0.66 2.64-1 4h-2c0.0412-0.743 0.0825-1.49 0.125-2.25-0.129-2.84-0.696-4.34-2.12-6.75 0.784-0.763 1.57-1.53 2.38-2.31 2.7-2.6 2.7-2.6 4.62-5.69z" fill="#141415"/>
<path transform="translate(1208,115)" d="m0 0h2c0.66 1.32 1.32 2.64 2 4 0.33-0.66 0.66-1.32 1-2 0.027 2.6 0.0468 5.21 0.0625 7.81 0.00838 0.738 0.0168 1.48 0.0254 2.24 0.0147 3.25-0.0526 5.85-1.09 8.95h-3c-1.17-2.35-1.12-3.74-1.1-6.35 0.00322-0.851 0.00645-1.7 0.00977-2.58 0.00838-0.889 0.0168-1.78 0.0254-2.7 0.00451-0.897 0.00902-1.79 0.0137-2.72 0.0118-2.22 0.0283-4.44 0.0488-6.66z" fill="#131415"/>
<path transform="translate(1313,72)" d="m0 0c5.87 0.576 9.76 1.27 13.6 5.95 3.36 4.69 5.15 8.27 5.39 14-1.88-0.25-1.88-0.25-4-1-1.49-2.19-1.98-3.88-2.38-6.5-0.784-3.14-2.3-4.33-4.62-6.5v-2h-9c0.33-1.32 0.66-2.64 1-4z" fill="#161616"/>
<path transform="translate(503,50)" d="m0 0c0.66 0.33 1.32 0.66 2 1-0.161 0.503-0.322 1.01-0.487 1.52-0.696 3.36-0.691 6.67-0.718 10.1-0.0099 0.761-0.0198 1.52-0.03 2.31-0.0315 2.51-0.0563 5.02-0.0811 7.53-0.0206 1.74-0.0416 3.49-0.063 5.23-0.0551 4.58-0.105 9.17-0.153 13.8-0.0503 4.68-0.106 9.36-0.161 14-0.107 9.18-0.209 18.4-0.307 27.5h-1c-0.177-10.5-0.343-21.1-0.495-31.6-0.0709-4.89-0.146-9.78-0.229-14.7-0.0801-4.71-0.15-9.43-0.214-14.1-0.026-1.8-0.0556-3.6-0.0887-5.4-0.0457-2.52-0.0789-5.03-0.109-7.55-0.0165-0.75-0.0331-1.5-0.0501-2.27-0.0149-1.8 0.0758-3.6 0.185-5.39 0.66-0.66 1.32-1.32 2-2z" fill="#E3E6E5"/>
<path transform="translate(910,188)" d="m0 0c-3.57 3.41-7.35 3.69-12.1 4.12-5.55 0.528-5.55 0.528-10.9 1.88-0.99-0.66-1.98-1.32-3-2 0.66-0.33 1.32-0.66 2-1-0.66-0.66-1.32-1.32-2-2 3.02-0.561 6.04-1.1 9.06-1.62 0.848-0.16 1.7-0.32 2.57-0.484 5.47-0.929 9.16-0.854 14.4 1.11z" fill="#E3E6E5"/>
<path transform="translate(1076,60)" d="m0 0h1c0.749 3.66 1.24 6.42 0 10h2v18c-1.98 0.66-3.96 1.32-6 2v-2h3c-0.33-0.99-0.66-1.98-1-3-0.0976-2.93-0.139-5.82-0.125-8.75-0.00387-0.786-0.00773-1.57-0.0117-2.38 0.00785-4.73 0.352-9.21 1.14-13.9z" fill="#131415"/>
<path transform="translate(633,97)" d="m0 0h2c0.247 0.619 0.495 1.24 0.75 1.88 1.46 2.48 2.63 3.08 5.25 4.12-6.53 2.96-11.9 3.35-19 3 0.33-1.65 0.66-3.3 1-5 3.29-0.8 4.71-1.1 8 0 0.66-1.32 1.32-2.64 2-4z" fill="#161616"/>
<path transform="translate(21,153)" d="m0 0h6v4c1.32 0.33 2.64 0.66 4 1-1.32 0.33-2.64 0.66-4 1v3c2.64 0.33 5.28 0.66 8 1v1c-1.77 0.0811-3.54 0.139-5.31 0.188-1.48 0.0522-1.48 0.0522-2.99 0.105-2.7-0.293-2.7-0.293-4.57-1.67-1.12-1.62-1.12-1.62-0.812-3.81 0.227-0.598 0.454-1.2 0.688-1.81h-2c0.33-1.32 0.66-2.64 1-4z" fill="#131415"/>
<path transform="translate(550,93)" d="m0 0c3.11 3.11 4 6.65 4 11-0.311 2.23-0.647 4.46-1 6.69-0.186 1.18-0.371 2.36-0.562 3.57-0.144 0.904-0.289 1.81-0.438 2.74-2-1-2-1-4-4-0.258-2.69-0.089-5.29 0-8h1c0.33-3.96 0.66-7.92 1-12z" fill="#131415"/>
<path transform="translate(1490,102)" d="m0 0h2c0.941 2.82 1.12 4.53 1.1 7.45-0.00322 0.848-0.00645 1.7-0.00977 2.57-0.00838 0.881-0.0168 1.76-0.0254 2.67-0.00451 0.893-0.00902 1.79-0.0137 2.71-0.0118 2.2-0.0282 4.4-0.0488 6.61h2c-0.33 0.99-0.66 1.98-1 3h-3c-1.28-2.56-1.11-4.37-1.1-7.23 0.00322-1.03 0.00645-2.06 0.00977-3.12 0.00838-1.08 0.0168-2.16 0.0254-3.27 0.00451-1.09 0.00902-2.18 0.0137-3.3 0.0118-2.69 0.0283-5.39 0.0488-8.08z" fill="#F9FBFB"/>
<path transform="translate(627,157)" d="m0 0c1.48 0.953 2.96 1.91 4.44 2.88 1.24 0.801 1.24 0.801 2.5 1.62 2.07 1.51 2.07 1.51 3.07 3.51-1.65 0.66-3.3 1.32-5 2v2c-3 0-3 0-4.61-1.53-0.783-0.975-0.783-0.975-1.58-1.97-0.53-0.65-1.06-1.3-1.61-1.97-0.398-0.505-0.797-1.01-1.21-1.53 1.75-3.88 1.75-3.88 4-5z" fill="#131415"/>
<path transform="translate(143,131)" d="m0 0c1.13 3.38 0.818 4.77 0.0625 8.19-0.195 0.901-0.389 1.8-0.59 2.73-0.156 0.687-0.312 1.37-0.473 2.08-1.65 0.33-3.3 0.66-5 1-0.186-0.928-0.186-0.928-0.375-1.88-0.497-2.32-0.497-2.32-2.62-4.12 0.93-1.15 1.87-2.3 2.81-3.44 0.522-0.638 1.04-1.28 1.58-1.93 1.61-1.63 1.61-1.63 4.61-2.63z" fill="#191919"/>
<path transform="translate(1234,94)" d="m0 0h3c0.65 1.41 1.29 2.83 1.94 4.25 0.539 1.18 0.539 1.18 1.09 2.39 1.76 4.27 2.1 6.84 0.973 11.4-0.928-1.18-0.928-1.18-1.88-2.38-2.02-2.59-2.02-2.59-4.12-4.62-0.414-2.6-0.414-2.6-0.625-5.62-0.0748-1-0.15-2.01-0.227-3.04-0.049-0.771-0.098-1.54-0.148-2.34z" fill="#FBFDFD"/>
<path transform="translate(909,212)" d="m0 0c0.66 1.32 1.32 2.64 2 4-3.35 2.03-5.87 2.22-9.75 2.12-0.985-0.018-1.97-0.0361-2.98-0.0547-1.12-0.0348-1.12-0.0348-2.27-0.0703 3.37-6.25 6.13-6.13 13-6z" fill="#ECEEEE"/>
<path transform="translate(62,153)" d="m0 0c0.598 0.186 1.2 0.371 1.81 0.562 2.35 0.658 2.35 0.658 5.19-0.562 2.7 0.16 5.32 0.604 8 1-1.98 0.99-1.98 0.99-4 2 1.65 0.33 3.3 0.66 5 1v2c-1.18 0.217-1.18 0.217-2.38 0.438-2.59 0.44-2.59 0.44-4.62 1.56-2.38-0.996-2.38-0.996-5.12-2.44-0.91-0.473-1.82-0.946-2.76-1.43-0.699-0.373-1.4-0.745-2.12-1.13 0.33-0.99 0.66-1.98 1-3z" fill="#F8FAFA"/>
<path transform="translate(74,115)" d="m0 0v29h-2c-0.819-3.57-1.12-6.86-1.1-10.5 0.00322-1.02 0.00645-2.04 0.00977-3.1 0.00838-1.06 0.0168-2.11 0.0254-3.2 0.00451-1.07 0.00902-2.15 0.0137-3.26 0.0118-2.64 0.0282-5.29 0.0488-7.93 2-1 2-1 3-1z" fill="#151515"/>
<path transform="translate(227,81)" d="m0 0h2v3c0.763-0.309 1.53-0.619 2.31-0.938 1.88-0.741 3.77-1.42 5.69-2.06 1 1 1 1 1.06 3.56-0.0206 0.804-0.0412 1.61-0.0625 2.44-2.88 0.961-4.7 1.11-7.69 1.06-1.21-0.0135-1.21-0.0135-2.45-0.0273-0.922-0.0174-0.922-0.0174-1.86-0.0352-0.0425-2-0.0408-4 0-6 0.33-0.33 0.66-0.66 1-1z" fill="#131415"/>
<path transform="translate(46,142)" d="m0 0c3.82 3.42 5.8 5.98 7 11v3c-1.32-0.66-2.64-1.32-4-2v-2c-0.598-0.268-1.2-0.536-1.81-0.812-2.16-1.17-3.55-2.38-5.19-4.19 0.33-0.99 0.66-1.98 1-3h2l1-2z" fill="#131415"/>
<path transform="translate(480 157)" d="m0 0c0.998 0.0232 2 0.0464 3.02 0.0703 1.5 0.0271 1.5 0.0271 3.04 0.0547 0.771 0.0232 1.54 0.0464 2.34 0.0703 0.33 1.32 0.66 2.64 1 4-5.23 3.27-8.17 3.11-14 2 0-4.41 0.0409-5.85 4.6-6.2z" fill="#1F1F20"/>
<path transform="translate(314,95)" d="m0 0h2v2h2c2.09 5.31 3.61 9.29 2 15-0.433-0.598-0.866-1.2-1.31-1.81-1.55-2.16-1.55-2.16-3.25-3.54-1.84-2.11-1.96-3.52-2.19-6.28-0.0773-0.797-0.155-1.59-0.234-2.41-0.00516-0.647-0.0103-1.29-0.0156-1.96 0.33-0.33 0.66-0.66 1-1z" fill="#F1F3F3"/>
<path transform="translate(1069,118)" d="m0 0c2.97 0.495 2.97 0.495 6 1v12c-0.33-1.32-0.66-2.64-1-4-0.619 0.206-1.24 0.412-1.88 0.625-0.701 0.124-1.4 0.248-2.12 0.375-0.66-0.66-1.32-1.32-2-2 0.0329-2.73 0.564-5.3 1-8z" fill="#FAFCFC"/>
<path transform="translate(1157,153)" d="m0 0h6v2h-4v3h4c0.33 1.65 0.66 3.3 1 5-0.598-0.186-1.2-0.371-1.81-0.562-2.35-0.658-2.35-0.658-5.19 0.562-0.66-0.33-1.32-0.66-2-1v-6h2v-3z" fill="#131415"/>
<path transform="translate(101,45)" d="m0 0h4c1.06 1.81 1.06 1.81 2 4-0.33 0.99-0.66 1.98-1 3 0.66 0.33 1.32 0.66 2 1-0.907 0.144-1.81 0.289-2.75 0.438-2.46 0.427-4.84 0.913-7.25 1.56v-8h2c-0.33 1.32-0.66 2.64-1 4h2v-6z" fill="#161616"/>
<path transform="translate(55,48)" d="m0 0c2.64 0.33 5.28 0.66 8 1-0.33 0.99-0.66 1.98-1 3-0.66-0.33-1.32-0.66-2-1v6c-0.99 0.33-1.98 0.66-3 1v-2c-2.31-0.66-4.62-1.32-7-2 2-3 2-3 5-4v-2z" fill="#F7F9F9"/>
<path transform="translate(888,190)" d="m0 0c-0.66 0.66-1.32 1.32-2 2 0.33 0.66 0.66 1.32 1 2-3.45 2.05-5.32 3.06-9.38 2.69-0.866-0.227-1.73-0.454-2.62-0.688 0.495-0.433 0.99-0.866 1.5-1.31 1.83-1.68 1.83-1.68 1.5-4.69 3.28-1.64 6.43-0.519 10 0z" fill="#FAFCFC"/>
<path transform="translate(614,102)" d="m0 0c0.66 0.33 1.32 0.66 2 1v2c1.42 0.371 1.42 0.371 2.88 0.75 3.12 1.25 3.12 1.25 4.5 3.38 0.206 0.619 0.413 1.24 0.625 1.88-1.03-0.165-2.06-0.33-3.12-0.5-3.36-0.433-6.5-0.582-9.88-0.5 0.0206-0.784 0.0412-1.57 0.0625-2.38 0.124-2.61 0.124-2.61-1.06-4.62 0.99 0.33 1.98 0.66 3 1 0.33-0.66 0.66-1.32 1-2z" fill="#151616"/>
<path transform="translate(1142,90)" d="m0 0h2c0.17 0.534 0.34 1.07 0.516 1.62 1.92 5.9 4.12 11.6 6.48 17.4-2.45-0.365-3.66-0.552-5.2-2.57-2.22-4.76-3.82-9.26-4.8-14.4 0.33-0.66 0.66-1.32 1-2z" fill="#181818"/>
<path transform="translate(846,91)" d="m0 0c1.32 0.33 2.64 0.66 4 1 0.125 5.75 0.125 5.75-1 8h-2v3h-2c-0.289-0.804-0.577-1.61-0.875-2.44-0.858-2.7-0.858-2.7-3.12-3.56 1.65-0.33 3.3-0.66 5-1v-5z" fill="#131415"/>
<path transform="translate(101,86)" d="m0 0h1v38c-0.99-0.33-1.98-0.66-3-1v-7h2v-30z" fill="#F0F2F2"/>
<path transform="translate(258,81)" d="m0 0v7c-0.804 0.289-1.61 0.578-2.44 0.875-2.7 0.858-2.7 0.858-3.56 3.12-0.33-0.99-0.66-1.98-1-3 1.32-0.66 2.64-1.32 4-2h-3c-0.33-0.66-0.66-1.32-1-2l-4 2c0.188-1.88 0.188-1.88 1-4 3.38-1.88 6.18-2.22 10-2z" fill="#131415"/>
<path transform="translate(1156,119)" d="m0 0h6c2.02 3.04 2.32 4.19 2.62 7.69 0.0748 0.808 0.15 1.62 0.227 2.45 0.0735 0.922 0.0735 0.922 0.148 1.86-1.86-0.258-1.86-0.258-4-1-1.23-1.74-1.23-1.74-2.19-3.88-0.324-0.699-0.647-1.4-0.98-2.12-0.68-1.64-1.27-3.32-1.83-5.01z" fill="#F1F3F3"/>
<path transform="translate(1383,157)" d="m0 0c0.66 3.3 1.32 6.6 2 10-2.47-0.99-2.47-0.99-5-2-0.33 0.66-0.66 1.32-1 2-1.62-2.57-2.04-3.68-1.62-6.75 0.206-0.743 0.412-1.49 0.625-2.25 3-1 3-1 5-1z" fill="#131415"/>
<path transform="translate(646,129)" d="m0 0c2.5 1.5 2.5 1.5 5 4 0.653 2.95 0.398 4.92 0 8-0.99 0.66-1.98 1.32-3 2-0.124-1.61-0.124-1.61-0.25-3.25-0.805-4.02-1.63-5.23-4.75-7.75 0.33-0.66 0.66-1.32 1-2 0.33 0.33 0.66 0.66 1 1 0.33-0.66 0.66-1.32 1-2z" fill="#EFF1F1"/>
<path transform="translate(464,118)" d="m0 0c2.97 0.495 2.97 0.495 6 1v7c-6.05 0.195-6.05 0.195-8 0-0.66-0.66-1.32-1.32-2-2h3c0.33-1.98 0.66-3.96 1-6z" fill="#F6F9F8"/>
<path transform="translate(480,164)" d="m0 0c0.33 0.99 0.66 1.98 1 3 0.66 0.33 1.32 0.66 2 1-0.99 0.33-1.98 0.66-3 1v3h-2v3c-1.65 0.33-3.3 0.66-5 1 0.66-0.99 1.32-1.98 2-3-0.66-0.66-1.32-1.32-2-2 0.784-0.598 1.57-1.2 2.38-1.81 2.77-2.1 2.77-2.1 4.62-5.19z" fill="#131415"/>
<path transform="translate(1432,172)" d="m0 0c0.66 0.66 1.32 1.32 2 2-0.33 1.32-0.66 2.64-1 4h-16c-0.33-0.66-0.66-1.32-1-2 5.35-1 9.62-0.849 15 0 0.33-1.32 0.66-2.64 1-4z" fill="#181818"/>
<path transform="translate(312 83.6)" d="m0 0c2.66 2.04 3.05 4.27 3.88 7.44-1.81 0.625-1.81 0.625-4 1-0.99-0.66-1.98-1.32-3-2 0.66-0.33 1.32-0.66 2-1-1.32-0.66-2.64-1.32-4-2 0.33-0.66 0.66-1.32 1-2-0.66-0.33-1.32-0.66-2-1 2.35-0.841 3.68-1.08 6.12-0.438z" fill="#131415"/>
<path transform="translate(458,177)" d="m0 0c0.99 0.66 1.98 1.32 3 2v2c1.65-0.66 3.3-1.32 5-2v3c-0.638 0.121-1.28 0.242-1.93 0.367-0.826 0.168-1.65 0.335-2.5 0.508-0.824 0.162-1.65 0.325-2.5 0.492-0.682 0.209-1.36 0.418-2.07 0.633-0.33 0.66-0.66 1.32-1 2 0-7 0-7 2-9z" fill="#1A1A1A"/>
<path transform="translate(244,107)" d="m0 0v4h-10c-0.33-1.32-0.66-2.64-1-4 7.62-1.12 7.62-1.12 11 0z" fill="#131415"/>
<path transform="translate(300,104)" d="m0 0h5v7h-6c0.33-2.31 0.66-4.62 1-7z" fill="#131415"/>
<path transform="translate(214,79)" d="m0 0c0.99 0.66 1.98 1.32 3 2v4c-2.35 1.43-3.48 2.09-6.25 1.62-0.577-0.206-1.16-0.412-1.75-0.625v-3c2.5-2.19 2.5-2.19 5-4z" fill="#141415"/>
<path transform="translate(1121,158)" d="m0 0c3 1 3 1 5 4-0.188 2.56-0.188 2.56-1 5-0.99 0.66-1.98 1.32-3 2-1-3-1-3-1-7h-2v-3c0.66-0.33 1.32-0.66 2-1z" fill="#191919"/>
<path transform="translate(600,150)" d="m0 0v14h-2c-1.32-2.64-1.1-4.68-1.06-7.62 0.00902-1 0.018-2.01 0.0273-3.04 0.0116-0.771 0.0232-1.54 0.0352-2.34 2-1 2-1 3-1z" fill="#202020"/>
<path transform="translate(903,207)" d="m0 0h3v4c1.32 0.33 2.64 0.66 4 1-3.96 0.66-7.92 1.32-12 2v-4h4c0.33-0.99 0.66-1.98 1-3z" fill="#151515"/>
<path transform="translate(52,36)" d="m0 0c1.98 0.66 3.96 1.32 6 2v3c-4.29-0.33-8.58-0.66-13-1 0.66-0.33 1.32-0.66 2-1v-2c1.65 0.33 3.3 0.66 5 1v-2z" fill="#131415"/>
<path transform="translate(1463,85)" d="m0 0c2.56 0.25 2.56 0.25 5 1 0.33 0.66 0.66 1.32 1 2-1.65 0.33-3.3 0.66-5 1v6c-0.99-0.33-1.98-0.66-3-1-0.125-3.38-0.125-3.38 0-7 0.66-0.66 1.32-1.32 2-2z" fill="#1F1F1F"/>
<path transform="translate(1085,50)" d="m0 0c1.81 0.188 1.81 0.188 4 1 1.88 2.31 1.88 2.31 3 5-0.812 2.31-0.812 2.31-2 4-5-5.5-5-5.5-5-10z" fill="#F3F5F5"/>
<path transform="translate(844,114)" d="m0 0h1v13h-3c-0.0545-1.42-0.093-2.83-0.125-4.25-0.0232-0.789-0.0464-1.58-0.0703-2.39 0.212-2.57 0.909-4.15 2.2-6.36z" fill="#151515"/>
<path transform="translate(1311,109)" d="m0 0h2c0.33 4.95 0.66 9.9 1 15h-2c-1.44-2.88-1.09-5.42-1.06-8.62 0.00902-1.19 0.018-2.38 0.0273-3.6 0.0116-0.915 0.0232-1.83 0.0352-2.77z" fill="#131415"/>
<path transform="translate(857,73)" d="m0 0v2h5c0.33 0.66 0.66 1.32 1 2-1.46 0.168-2.92 0.334-4.38 0.5-1.22 0.139-1.22 0.139-2.46 0.281-2.16 0.219-2.16 0.219-4.16 0.219-0.33-0.99-0.66-1.98-1-3 3.75-2 3.75-2 6-2z" fill="#131415"/>
<path transform="translate(620,138)" d="m0 0h2c0.33 4.29 0.66 8.58 1 13-0.99 0.33-1.98 0.66-3 1-1-6.75-1-6.75-1-9h2c-0.33-1.65-0.66-3.3-1-5z" fill="#161616"/>
<path transform="translate(622,106)" d="m0 0c2.25-0.375 2.25-0.375 5 0 2.31 3 2.31 3 4 6-1.65 0.33-3.3 0.66-5 1-4-4.75-4-4.75-4-7z" fill="#F4F6F6"/>
<path transform="translate(1235 82.8)" d="m0 0c0.516 0.392 1.03 0.784 1.56 1.19v2c-6.4 1.23-6.4 1.23-9.44 0.0625-0.516-0.351-1.03-0.701-1.56-1.06 6.4-3.2 6.4-3.2 9.44-2.19z" fill="#131415"/>
<path transform="translate(134,134)" d="m0 0h1c-0.188 3.31-0.188 3.31-1 7-2.56 1.94-2.56 1.94-5 3v-6h2c1.03-1.31 2.03-2.65 3-4z" fill="#F0F2F2"/>
<path transform="translate(810,29)" d="m0 0c-0.99 1.48-0.99 1.48-2 3h-2c-1.63 1.46-1.63 1.46-3 3-0.66-1.32-1.32-2.64-2-4 5.62-3.12 5.62-3.12 9-2zm-13 5h2v2h-2v-2z" fill="#1A1A1A"/>
<path transform="translate(500,20)" d="m0 0h10c0.33 0.99 0.66 1.98 1 3h-12c0.33-0.99 0.66-1.98 1-3z" fill="#212121"/>
<path transform="translate(1234,94)" d="m0 0h3c2.68 4.02 2.16 6.24 2 11-2-3-2-3-2-5-0.99-0.33-1.98-0.66-3-1v-5z" fill="#E3E6E5"/>
<path transform="translate(62,38)" d="m0 0c1.92 0.115 3.83 0.242 5.75 0.375 1.6 0.104 1.6 0.104 3.23 0.211 2.82 0.387 4.6 0.971 7.02 2.41-0.33 0.66-0.66 1.32-1 2h-2v-2c-0.771 0.0116-1.54 0.0232-2.34 0.0352-1.5 0.0135-1.5 0.0135-3.04 0.0273-0.998 0.0116-2 0.0232-3.02 0.0352-2.6-0.0977-2.6-0.0977-4.6-1.1v-2z" fill="#131415"/>
<path transform="translate(647,171)" d="m0 0c0.33 0.66 0.66 1.32 1 2 3.03 0.658 3.03 0.658 6 1v2c-0.771-0.0116-1.54-0.0232-2.34-0.0352-1-0.00902-2.01-0.018-3.04-0.0273-1.5-0.0174-1.5-0.0174-3.02-0.0352-2.59-0.0824-2.59-0.0824-4.6 1.1v-3c1.98-0.33 3.96-0.66 6-1v-2z" fill="#181818"/>
<path transform="translate(486,152)" d="m0 0 2 1v2c0.66 0.33 1.32 0.66 2 1-6.29 2.43-6.29 2.43-10 1 0.804-0.639 1.61-1.28 2.44-1.94 1.84-1.47 1.84-1.47 3.56-3.06z" fill="#E3E6E5"/>
<path transform="translate(472,125)" d="m0 0v11c-0.99-0.33-1.98-0.66-3-1v-9c2-1 2-1 3-1z" fill="#212121"/>
<path transform="translate(202,22)" d="m0 0c1 2 1 2 0.0625 5.12-0.351 0.949-0.701 1.9-1.06 2.88-0.33-0.66-0.66-1.32-1-2-1.32 0.33-2.64 0.66-4 1-0.33-0.66-0.66-1.32-1-2h2c0.268-0.639 0.536-1.28 0.812-1.94 1.19-2.06 1.19-2.06 4.19-3.06z" fill="#1C1C1C"/>
<path transform="translate(522,154)" d="m0 0c0.99 0.66 1.98 1.32 3 2-1 1-1 1-4.56 1.06-1.13-0.0206-2.27-0.0412-3.44-0.0625v-2c-0.99 0.33-1.98 0.66-3 1v-2c3.34-1.11 4.67-0.917 8 0z" fill="#131415"/>
<path transform="translate(306,104)" d="m0 0h4v7h-4v-7z" fill="#131415"/>
<path transform="translate(450,20)" d="m0 0c1.94 0.375 1.94 0.375 4 1 0.33 0.66 0.66 1.32 1 2h-5v7h-2c-0.25-6.62-0.25-6.62 2-10z" fill="#191A1A"/>
<path transform="translate(865,182)" d="m0 0c6.05-0.195 6.05-0.195 8 0 0.66 0.66 1.32 1.32 2 2h-3v2h-2c-0.33-0.33-0.66-0.66-1-1v1h-5c0.33-1.32 0.66-2.64 1-4z" fill="#131415"/>
<path transform="translate(492 149)" d="m0 0c0.784 0.0412 1.57 0.0825 2.38 0.125-0.66 1.32-1.32 2.64-2 4 0.66 0.66 1.32 1.32 2 2h-6c-0.625-1.88-0.625-1.88-1-4 2-2 2-2 4.62-2.12z" fill="#F9FBFB"/>
<path transform="translate(56,56)" d="m0 0c-0.628 2.93-1.59 5.36-3 8-0.144-0.639-0.289-1.28-0.438-1.94-0.373-2.04-0.373-2.04-1.56-3.06-0.33-0.99-0.66-1.98-1-3 2.49-1.25 3.41-0.777 6 0z" fill="#202020"/>
<path transform="translate(89,54)" d="m0 0h9v4c-2.81 0.625-2.81 0.625-6 1-0.99-0.66-1.98-1.32-3-2l2-1c-0.66-0.66-1.32-1.32-2-2z" fill="#E3E6E5"/>
<path transform="translate(909,212)" d="m0 0c0.33 0.66 0.66 1.32 1 2-3.21 1.61-6.44 1.06-10 1-0.33-0.66-0.66-1.32-1-2 3.47-1.16 6.36-1.07 10-1z" fill="#F8FAFA"/>
<path transform="translate(865,187)" d="m0 0h10v2h-3c-0.33 0.66-0.66 1.32-1 2-2.97-0.495-2.97-0.495-6-1v-3z" fill="#131415"/>
<path transform="translate(136,154)" d="m0 0c0.66 0.33 1.32 0.66 2 1-3.62 6.88-3.62 6.88-7 8v-5h4c0.33-1.32 0.66-2.64 1-4z" fill="#161616"/>
<path transform="translate(704,57)" d="m0 0h6c-0.33 0.66-0.66 1.32-1 2 0.99 0.99 1.98 1.98 3 3-2.31-0.33-4.62-0.66-7-1-0.33-1.32-0.66-2.64-1-4z" fill="#1B1B1B"/>
</svg>
